<?xml version="1.0" encoding="iso-8859-1"?>
<!-- Generator: Adobe Illustrator 17.1.0, SVG Export Plug-In . SVG Version: 6.00 Build 0)  -->
<!DOCTYPE svg PUBLIC "-//W3C//DTD SVG 1.1//EN" "http://www.w3.org/Graphics/SVG/1.1/DTD/svg11.dtd">
<svg version="1.1" id="Capa_1" xmlns="http://www.w3.org/2000/svg" xmlns:xlink="http://www.w3.org/1999/xlink" x="0px" y="0px"
	 viewBox="0 0 550.752 550.752" style="enable-background:new 0 0 550.752 550.752;" xml:space="preserve">
<path d="M329.193,199.787c-2.557-3.028-3.908-6.476-3.908-9.968c0-0.17-0.006-0.339-0.017-0.508l-8.282-121.971
	c4.355-3.444,7.163-8.761,7.163-14.731v-4.608c0-1.575-0.196-3.144-0.584-4.662c-0.125-0.487-0.271-0.964-0.432-1.434
	c3.844-4.541,6.03-10.333,6.03-16.44C329.163,11.424,317.739,0,303.698,0c-5.093,0-9.957,1.497-14.075,4.241
	C285.505,1.497,280.642,0,275.548,0s-9.957,1.497-14.075,4.241C257.355,1.497,252.492,0,247.398,0
	c-14.041,0-25.464,11.424-25.464,25.465c0,6.125,2.175,11.751,5.791,16.149c-0.086,0.237-0.173,0.475-0.249,0.715
	c-0.58,1.833-0.874,3.741-0.874,5.672v4.608c0,5.971,2.809,11.288,7.164,14.731l-8.282,121.971
	c-0.011,0.169-0.017,0.338-0.017,0.508c0,3.492-1.352,6.939-3.909,9.968c-16.631,19.704-33.413,61.702-33.413,111.114
	c0,30.6,1.302,199.137,1.315,200.777c0,23.006,13.755,39.073,33.451,39.073H327.84c19.696,0,33.451-16.067,33.451-39.016
	c0.013-1.698,1.315-170.235,1.315-200.835C362.606,263.942,345.797,219.459,329.193,199.787z M247.398,15
	c3.204,0,6.192,1.451,8.198,3.981c1.422,1.795,3.587,2.841,5.877,2.841s4.455-1.046,5.877-2.841c2.006-2.53,4.994-3.981,8.198-3.981
	s6.191,1.451,8.198,3.981c1.422,1.795,3.587,2.841,5.877,2.841s4.455-1.046,5.877-2.841c2.006-2.53,4.995-3.981,8.198-3.981
	c5.77,0,10.464,4.694,10.464,10.465c0,1.881-0.517,3.683-1.435,5.258c-2.277-0.97-4.769-1.508-7.365-1.508h-42.63
	c-2.61-0.442-5.375,0.512-7.136,2.733c-2.005,2.53-4.994,3.981-8.198,3.981c-5.77,0-10.464-4.694-10.464-10.465
	S241.628,15,247.398,15z M346.292,511.679c0,11.982-5.705,24.073-18.451,24.073H222.912c-13.619,0-18.451-12.968-18.451-24.131
	c-0.013-1.698-1.315-170.178-1.315-200.72c0-45.377,15.487-84.392,29.875-101.438c1.228-1.454,2.307-2.975,3.239-4.547h47.703
	c4.142,0,7.5-3.357,7.5-7.5s-3.358-7.5-7.5-7.5h-43.486l8.048-118.52h26.85c4.142,0,7.5-3.357,7.5-7.5s-3.358-7.5-7.5-7.5h-29.987
	c-2.088,0-3.787-1.699-3.787-3.787v-2.353c1.863,0.436,3.802,0.673,5.796,0.673c6.458,0,12.542-2.412,17.208-6.715h40.756
	c1.733,0,3.242,1.168,3.669,2.839c0.078,0.305,0.117,0.623,0.117,0.947v4.608c0,2.088-1.698,3.787-3.786,3.787h-1.633
	c-4.142,0-7.5,3.357-7.5,7.5c0,3.624,2.57,6.647,5.986,7.347l8.058,118.672h-1.148c-4.142,0-7.5,3.357-7.5,7.5s3.358,7.5,7.5,7.5
	h5.366c0.931,1.572,2.011,3.093,3.239,4.547c14.847,17.588,29.876,58.08,29.876,101.438
	C347.606,341.443,346.305,509.923,346.292,511.679z M275.376,265.464c-19.22,0-37.064,11.031-50.245,31.062
	c-12.543,19.062-19.452,44.262-19.452,70.957s6.908,51.895,19.452,70.957c13.181,20.029,31.024,31.061,50.245,31.061
	s37.064-11.031,50.245-31.061c12.543-19.063,19.452-44.262,19.452-70.957s-6.908-51.896-19.452-70.957
	C312.44,276.495,294.596,265.464,275.376,265.464z M330.072,367.482c0,23.798-6.031,46.069-16.982,62.711
	c-10.314,15.675-23.708,24.307-37.714,24.307s-27.4-8.632-37.714-24.307c-10.951-16.642-16.982-38.913-16.982-62.711
	s6.031-46.07,16.982-62.712c10.314-15.675,23.708-24.307,37.714-24.307s27.4,8.632,37.714,24.307
	C324.041,321.412,330.072,343.685,330.072,367.482z"/>
<g>
</g>
<g>
</g>
<g>
</g>
<g>
</g>
<g>
</g>
<g>
</g>
<g>
</g>
<g>
</g>
<g>
</g>
<g>
</g>
<g>
</g>
<g>
</g>
<g>
</g>
<g>
</g>
<g>
</g>
</svg>
