<?xml version="1.0" encoding="UTF-8" standalone="no"?>
<!-- Created with Inkscape (http://www.inkscape.org/) -->

<svg
   xmlns:dc="http://purl.org/dc/elements/1.1/"
   xmlns:cc="http://creativecommons.org/ns#"
   xmlns:rdf="http://www.w3.org/1999/02/22-rdf-syntax-ns#"
   xmlns:svg="http://www.w3.org/2000/svg"
   xmlns="http://www.w3.org/2000/svg"
   xmlns:sodipodi="http://sodipodi.sourceforge.net/DTD/sodipodi-0.dtd"
   xmlns:inkscape="http://www.inkscape.org/namespaces/inkscape"
   width="96mm"
   height="96mm"
   viewBox="0 0 96 96"
   version="1.1"
   id="svg1072"
   inkscape:version="0.92.5 (2060ec1f9f, 2020-04-08)"
   sodipodi:docname="setosa.svg">
  <defs
     id="defs1066" />
  <sodipodi:namedview
     id="base"
     pagecolor="#ffffff"
     bordercolor="#666666"
     borderopacity="1.0"
     inkscape:pageopacity="0.0"
     inkscape:pageshadow="2"
     inkscape:zoom="0.46807959"
     inkscape:cx="8.917712"
     inkscape:cy="183.10686"
     inkscape:document-units="mm"
     inkscape:current-layer="svg1072"
     showgrid="false"
     inkscape:window-width="2421"
     inkscape:window-height="1625"
     inkscape:window-x="166"
     inkscape:window-y="286"
     inkscape:window-maximized="0" />
  <metadata
     id="metadata1069">
    <rdf:RDF>
      <cc:Work
         rdf:about="">
        <dc:format>image/svg+xml</dc:format>
        <dc:type
           rdf:resource="http://purl.org/dc/dcmitype/StillImage" />
        <dc:title />
      </cc:Work>
    </rdf:RDF>
  </metadata>
  <g
     inkscape:label="Layer 1"
     inkscape:groupmode="layer"
     id="layer1">
    <path
       inkscape:connector-curvature="0"
       style="opacity:1;vector-effect:none;fill:#ba84f2;fill-opacity:1;fill-rule:evenodd;stroke:#6c11a2;stroke-width:0.52916664;stroke-linecap:butt;stroke-linejoin:miter;stroke-miterlimit:4;stroke-dasharray:none;stroke-dashoffset:0;stroke-opacity:1"
       id="path58"
       d="m 49.336032,52.506437 c -0.55104,0.11886 -1.156943,0.14151 -1.720458,0.0664 0.29383,0.20744 0.572878,0.45426 0.819645,0.72352 0.271153,-0.30089 0.579038,-0.57206 0.900813,-0.78991 z m 1.243791,-0.52334 c 0.231121,-0.0324 0.454403,-0.0214 0.661262,0.0418 6.883045,2.10218 16.2843,13.81522 24.872818,17.70151 5.598683,2.5984 5.92411,3.96134 5.96534,6.51814 0.04123,2.55679 -2.002676,4.31078 -4.656447,5.74543 -1.618027,2.98087 -3.312088,4.83403 -5.856668,4.81055 -2.932589,-0.027 -4.088172,-1.18264 -6.406901,-6.11944 -4.770144,-8.39383 -13.536123,-16.18663 -16.790847,-22.6345 -3.536839,6.5933 -13.246521,14.90972 -16.716497,22.57821 -2.598401,5.59868 -3.961339,5.92411 -6.518135,5.96534 -2.556795,0.0412 -4.310782,-2.00268 -5.745437,-4.65645 -2.980867,-1.61803 -4.834025,-3.31209 -4.810549,-5.85667 0.02705,-2.93259 1.182638,-4.08817 6.119442,-6.4069 9.348992,-5.31295 17.952379,-15.58288 24.782333,-17.67384 0.164415,-0.0503 0.339495,-0.0694 0.520986,-0.0614 -0.137544,-0.12071 -0.25024,-0.25759 -0.331727,-0.41073 -3.380586,-6.35351 -1.745906,-21.28357 -5.070882,-30.10459 -2.121519,-5.79622 -1.387891,-6.99007 0.390885,-8.82715 1.778775,-1.83708 4.464288,-1.63208 7.355242,-0.77004 3.251911,-0.96367 5.760172,-1.07617 7.542863,0.73972 2.054521,2.09278 2.054521,3.72703 0.203263,8.85747 -2.853909,10.36755 -1.675487,23.713 -5.026461,30.02104 -0.110646,0.20828 -0.277032,0.3892 -0.483883,0.5425 z" />
    <path
       style="fill:none;fill-rule:evenodd;stroke:none;stroke-width:0.26458332"
       inkscape:connector-curvature="0"
       id="path60"
       d="m 47.156482,49.109567 c -0.326229,-0.79741 -1.257377,-3.52982 -2.00869,-7.40461 -0.189418,-0.97689 -0.638458,-4.23664 -0.286774,-3.98328 0.829455,0.59756 2.372759,15.99295 0.734957,-6.15365 -0.111197,-1.50362 0.712875,-0.31687 1.318038,8.56832 0.08043,1.18083 0.0544,2.4658 0.173167,3.55001 0.121062,1.10515 0.415954,5.56898 0.390596,4.32673 -0.834302,-40.8716696 0.298561,-13.61139 0.426487,-3.39171 0.04992,3.98835 0.364104,-13.19039 0.721815,-17.33716 0.124548,-1.44485 0.167535,5.91323 0.154827,7.31708 -0.01945,2.14947 -0.353185,11.76333 -0.134171,14.35054 0.222967,-2.54854 0.598271,-15.88149 0.852546,-18.96536 0.213207,-2.5857 0.729618,-10.05169 0.668242,-7.63804 -0.12074,4.74837 -0.335983,17.26127 -0.631925,21.83514 -0.06325,0.97732 1.346623,-11.25406 2.24677,-17.08125 -0.23177,4.98666 -1.561137,17.1586 -1.661448,18.99044 -0.05663,1.03405 2.165821,-14.5219 2.679152,-16.23262 0.09762,-0.32535 -0.602954,10.00267 -1.601782,13.89739 -0.447479,1.74486 -0.5499,4.80671 -1.164511,5.74644 -0.866148,1.32431 -1.700633,-0.0437 -2.550948,-0.0656 z" />
    <path
       style="fill:none;fill-rule:evenodd;stroke:none;stroke-width:0.26458332"
       inkscape:connector-curvature="0"
       id="path62"
       d="m 45.038646,57.960317 c -0.345313,0.78006 -1.654887,3.32783 -3.896945,6.55912 -0.565261,0.81467 -2.575253,3.41035 -2.63331,2.99618 -0.136935,-0.97683 9.746593,-12.84867 -4.864955,3.83878 -0.992034,1.13297 -0.707131,-0.25498 5.190133,-6.91516 0.783735,-0.88512 1.713399,-1.77217 2.402623,-2.615 0.702527,-0.8591 3.671432,-4.19898 2.806851,-3.30754 -28.445926,29.3294 -9.863185,9.38098 -2.695895,2.10147 2.797119,-2.84091 -9.608693,9.04068 -12.794004,11.71977 -1.109898,0.93339 4.08382,-4.27472 5.088858,-5.25439 1.538835,-1.49998 8.588401,-8.04349 10.276626,-10.01151 -1.959753,1.64443 -11.677214,10.77796 -14.03812,12.77822 -1.979514,1.67714 -7.628122,6.58622 -5.873422,4.92838 3.452016,-3.26145 12.479139,-11.92507 15.925816,-14.94621 0.736473,-0.64554 -8.898932,7.01885 -13.643906,10.51706 3.696255,-3.35474 13.235014,-11.03127 14.603087,-12.25345 0.772271,-0.68991 -11.77254,8.76978 -13.334029,9.62976 -0.296968,0.16355 7.507653,-6.63666 10.947733,-8.70842 1.54118,-0.92816 3.78373,-3.01475 4.866484,-3.26409 1.525887,-0.35139 1.119336,1.17117 1.679006,1.75675 z" />
    <path
       style="fill:none;fill-rule:evenodd;stroke:none;stroke-width:0.26458332"
       inkscape:connector-curvature="0"
       id="path64"
       d="m 51.801142,54.729677 c 0.822814,0.29961 3.501938,1.46986 6.87333,3.56699 0.849984,0.52872 3.548671,2.43371 3.100789,2.52923 -1.056341,0.22529 -13.36781,-9.21575 3.904811,4.81312 1.1727,0.95247 -0.306356,0.76689 -7.197087,-4.9014 -0.915768,-0.75331 -1.826945,-1.66036 -2.701555,-2.31749 -0.891492,-0.66981 -4.346461,-3.52453 -3.427597,-2.68648 30.23177,27.57298 9.634722,9.62578 2.136129,2.6693 -2.926411,-2.71484 9.280501,9.38555 12.015248,12.52321 0.952814,1.09327 -4.40907,-3.95319 -5.416376,-4.93207 -1.542298,-1.49879 -8.255055,-8.39204 -10.293686,-10.00963 1.678379,1.93075 11.053731,11.42333 13.096338,13.74771 1.71263,1.9489 6.732291,7.49991 5.030142,5.78652 -3.34863,-3.37073 -12.250306,-12.17414 -15.340843,-15.55913 -0.660368,-0.72329 7.139397,8.80436 10.683563,13.51913 -3.437769,-3.6206 -11.254986,-13.04532 -12.506436,-14.38701 -0.706435,-0.75737 8.89059,11.69012 9.743844,13.26578 0.162277,0.29966 -6.791999,-7.36867 -8.862237,-10.8253 -0.927484,-1.54859 -3.068288,-3.741 -3.28695,-4.86231 -0.308153,-1.58021 1.310058,-1.27748 1.965087,-1.91622 z" />
    <path
       inkscape:connector-curvature="0"
       style="opacity:1;vector-effect:none;fill:#ba00f2;fill-opacity:1;fill-rule:evenodd;stroke:#6c11a2;stroke-width:0.52916664;stroke-linecap:butt;stroke-linejoin:miter;stroke-miterlimit:4;stroke-dasharray:none;stroke-dashoffset:0;stroke-opacity:1"
       id="path66"
       d="m 48.772761,52.148257 c 0.01918,-0.0875 0.03841,-0.17622 0.0577,-0.266 0.0376,0.14986 0.07482,0.29698 0.111646,0.44133 1.005964,-2.57819 1.4938,-4.04685 3.475236,-6.02829 3.227242,-3.22724 7.376962,-5.30328 12.449156,-6.22811 -0.02281,1.52658 -0.07575,2.56205 -0.15884,3.10641 -0.596241,3.90627 -2.476693,7.15264 -5.145971,9.82192 -2.445729,2.44573 -3.678378,2.65045 -8.261908,4.22576 0.433837,0.63788 0.978696,1.37844 1.63458,2.22166 -0.733311,-0.35633 -1.400987,-0.67155 -2.003028,-0.94566 1.542066,3.78542 2.556751,5.09919 2.556751,8.48857 0,4.56401 -1.466313,8.96629 -4.398942,13.20683 -1.063334,-1.09559 -1.758082,-1.86522 -2.084247,-2.30889 -2.340546,-3.18375 -3.306395,-6.80896 -3.306395,-10.58389 0,-3.11275 0.588693,-4.24735 2.256931,-7.6175 -0.293688,0.18225 -0.601856,0.37765 -0.924505,0.58619 0.801407,-1.3382 1.431975,-2.45019 1.891707,-3.33597 -4.185044,-1.38217 -5.867172,-1.37717 -8.552158,-3.63014 -3.496234,-2.93368 -5.926042,-6.88667 -7.289427,-11.85896 1.522762,-0.11034 2.558907,-0.14784 3.108431,-0.11251 3.943376,0.25352 7.341282,1.84388 10.233046,4.27036 2.366309,1.98556 2.867652,3.16304 4.350242,6.54689 z" />
    <path
       style="fill:none;fill-rule:evenodd;stroke:none;stroke-width:0.26458332"
       inkscape:connector-curvature="0"
       id="path68"
       d="m 49.255464,56.372037 c 0.322514,0.34164 1.581481,3.66407 2.409587,5.28929 0.20878,0.40974 0.743238,1.76934 0.420947,1.65041 -0.760135,-0.28052 -2.772545,-6.67754 -0.393695,2.50032 0.161509,0.62312 -0.618525,0.10049 -1.526903,-3.57949 -0.120718,-0.48906 -0.151458,-1.0165 -0.302117,-1.46743 -0.153567,-0.45964 -0.601832,-2.30804 -0.527341,-1.79602 2.450812,16.84617 0.30534,5.58611 -0.235955,1.37722 -0.211249,-1.64257 0.229621,5.41019 0.08623,7.10085 -0.04994,0.58907 -0.396078,-2.43923 -0.443598,-3.01612 -0.07276,-0.88331 -0.179548,-4.82368 -0.481983,-5.89702 -0.09089,1.03892 0.134773,6.50729 0.03855,7.76509 -0.08069,1.05462 -0.225734,4.10389 -0.27241,3.11368 -0.09182,-1.94803 -0.425002,-7.08579 -0.354242,-8.95472 0.01513,-0.39934 -0.722223,4.57261 -1.275985,6.93175 -0.0034,-2.0414 0.665096,-6.99227 0.677296,-7.74154 0.0069,-0.42295 -1.31141,5.88242 -1.694722,6.56458 -0.0729,0.12973 0.115535,-4.08903 0.837673,-5.64917 0.323522,-0.69896 0.48767,-1.40055 0.791443,-2.31485 0.519007,-1.56212 1.189712,-2.07034 1.94423,-2.02574 z" />
    <path
       style="fill:none;fill-rule:evenodd;stroke:none;stroke-width:0.26458332"
       inkscape:connector-curvature="0"
       id="path70"
       d="m 49.64034,53.982537 c 0.06255,-0.46565 1.852258,-3.53492 2.59415,-5.20126 0.187044,-0.42012 0.907301,-1.69109 1.017696,-1.36577 0.26036,0.76727 -3.444603,6.35698 2.190879,-1.26755 0.382614,-0.51766 0.467342,0.41744 -1.820878,3.43927 -0.304102,0.4016 -0.694656,0.75741 -0.950278,1.15828 -0.260561,0.4086 -1.414938,1.9202 -1.0639,1.54008 11.549587,-12.50627 4.149061,-3.75274 1.218788,-0.68333 -1.143572,1.19787 4.060002,-3.5832 5.464132,-4.53573 0.489223,-0.3319 -1.646375,1.84287 -2.064806,2.24285 -0.640662,0.61243 -3.635708,3.17518 -4.279516,4.08569 0.864598,-0.58318 4.972293,-4.19991 6.010349,-4.91669 0.870368,-0.60099 3.331379,-2.40723 2.591216,-1.7478 -1.456122,1.29729 -5.239232,4.78952 -6.736192,5.91068 -0.319865,0.23956 4.008094,-2.31636 6.18998,-3.37066 -1.584325,1.28734 -5.85257,3.8835 -6.442538,4.34555 -0.333031,0.26082 5.396799,-2.68277 6.16816,-2.81418 0.146698,-0.025 -3.25048,2.48352 -4.917397,2.90415 -0.74679,0.18844 -1.395326,0.5024 -2.297047,0.84171 -1.540618,0.57974 -2.357667,0.37833 -2.797839,-0.23611 z" />
    <path
       style="fill:none;fill-rule:evenodd;stroke:none;stroke-width:0.26458332"
       inkscape:connector-curvature="0"
       id="path72"
       d="m 47.707106,54.027597 c -0.06254,-0.46565 -1.852255,-3.53492 -2.594149,-5.20126 -0.187042,-0.42012 -0.907304,-1.69109 -1.017693,-1.36577 -0.260364,0.76727 3.444599,6.35698 -2.190885,-1.26755 -0.382612,-0.51766 -0.467339,0.41744 1.820878,3.43927 0.304104,0.4016 0.694656,0.75741 0.950283,1.15827 0.260559,0.40861 1.414933,1.92021 1.063897,1.54009 -11.549586,-12.50627 -4.149061,-3.75274 -1.218787,-0.68333 1.143571,1.19787 -4.059999,-3.58319 -5.464135,-4.53573 -0.489223,-0.3319 1.646377,1.84287 2.064808,2.24285 0.640665,0.61243 3.635708,3.17518 4.279516,4.08568 -0.864594,-0.58317 -4.972293,-4.1999 -6.010349,-4.91668 -0.870368,-0.60099 -3.331379,-2.40723 -2.591212,-1.7478 1.456121,1.29729 5.239231,4.78952 6.736188,5.91068 0.319863,0.23956 -4.008093,-2.31636 -6.189977,-3.37066 1.584322,1.28734 5.852567,3.8835 6.442535,4.34555 0.333031,0.26082 -5.396796,-2.68277 -6.168157,-2.81418 -0.146701,-0.025 3.250478,2.48352 4.917395,2.90415 0.746789,0.18844 1.395325,0.5024 2.297044,0.84171 1.540621,0.57974 2.35767,0.37833 2.797844,-0.23611 z" />
    <path
       style="opacity:1;vector-effect:none;fill:#5218d8;fill-opacity:1;fill-rule:evenodd;stroke:#6c11a2;stroke-width:0.52916664;stroke-linecap:butt;stroke-linejoin:miter;stroke-miterlimit:4;stroke-dasharray:none;stroke-dashoffset:0;stroke-opacity:1"
       inkscape:connector-curvature="0"
       id="path96"
       d="m 50.321883,53.337937 -0.162116,-0.0768 0.743771,-11.79501 0.0083,-0.051 0.06915,-0.26133 c 0.06038,-0.22821 0.0892,-0.4633 0.08568,-0.699 -0.02167,-1.45341 -1.242383,-2.6165 -2.728978,-2.59518 -0.23141,0.003 -0.46145,0.0353 -0.684623,0.0953 -1.458658,0.39195 -2.315485,1.86669 -1.917144,3.2935 l 0.03188,0.11419 0.0092,0.0546 0.760664,12.10465 -9.614265,7.61794 -0.04346,0.028 -0.24048,0.12348 c -0.209989,0.10783 -0.403984,0.24372 -0.576791,0.40404 -1.065605,0.98862 -1.113121,2.67405 -0.10255,3.76454 0.15731,0.16976 0.335036,0.31928 0.528934,0.445 1.267303,0.82173 2.936575,0.47169 3.730363,-0.77906 l 0.06353,-0.1001 0.03437,-0.0434 8.235087,-8.40816 7.396991,9.00788 0.02875,0.043 0.127659,0.23829 c 0.111474,0.20807 0.250735,0.39967 0.414046,0.56965 1.007065,1.04819 2.69307,1.06628 3.765756,0.0368 0.166982,-0.16024 0.313378,-0.34055 0.4357,-0.53662 0.799492,-1.28145 0.420365,-2.94436 -0.844049,-3.7162 l -0.101196,-0.0618 -0.04395,-0.0336 -8.963911,-8.47801 c -0.133204,-0.12598 -0.283445,-0.22848 -0.446323,-0.30561 z" />
  </g>
</svg>
