<?xml version="1.0" encoding="UTF-8" standalone="no"?>
<!-- Created with Inkscape (http://www.inkscape.org/) -->

<svg
   xmlns:dc="http://purl.org/dc/elements/1.1/"
   xmlns:cc="http://creativecommons.org/ns#"
   xmlns:rdf="http://www.w3.org/1999/02/22-rdf-syntax-ns#"
   xmlns:svg="http://www.w3.org/2000/svg"
   xmlns="http://www.w3.org/2000/svg"
   xmlns:sodipodi="http://sodipodi.sourceforge.net/DTD/sodipodi-0.dtd"
   xmlns:inkscape="http://www.inkscape.org/namespaces/inkscape"
   width="96mm"
   height="96mm"
   viewBox="0 0 96 96"
   version="1.1"
   id="svg1072"
   inkscape:version="0.92.5 (2060ec1f9f, 2020-04-08)"
   sodipodi:docname="versicolor.svg">
  <defs
     id="defs1066" />
  <sodipodi:namedview
     id="base"
     pagecolor="#ffffff"
     bordercolor="#666666"
     borderopacity="1.0"
     inkscape:pageopacity="0.0"
     inkscape:pageshadow="2"
     inkscape:zoom="0.6619645"
     inkscape:cx="182.85873"
     inkscape:cy="166.03073"
     inkscape:document-units="mm"
     inkscape:current-layer="layer1"
     showgrid="false"
     inkscape:window-width="2595"
     inkscape:window-height="1561"
     inkscape:window-x="412"
     inkscape:window-y="288"
     inkscape:window-maximized="0" />
  <metadata
     id="metadata1069">
    <rdf:RDF>
      <cc:Work
         rdf:about="">
        <dc:format>image/svg+xml</dc:format>
        <dc:type
           rdf:resource="http://purl.org/dc/dcmitype/StillImage" />
        <dc:title />
      </cc:Work>
    </rdf:RDF>
  </metadata>
  <g
     inkscape:label="Layer 1"
     inkscape:groupmode="layer"
     id="layer1">
    <path
       inkscape:connector-curvature="0"
       style="fill:#ba84f2;fill-opacity:1;fill-rule:evenodd;stroke:#6c11a2;stroke-width:0.52916664"
       id="path48"
       d="m 49.148955,50.825947 c -0.412065,0.0316 -0.833292,0.0293 -1.239496,-0.007 0.222221,0.15869 0.441124,0.33739 0.651203,0.53037 0.187082,-0.18462 0.384683,-0.36034 0.588293,-0.52301 z m 2.6895,-1.02575 c 0.01982,0.004 0.03945,0.009 0.05887,0.0147 7.323733,2.02204 15.92244,14.52722 24.860173,18.44233 5.816007,2.62382 5.961563,4.11181 5.601301,6.92756 -0.360262,2.81575 -2.91279,4.83604 -6.093098,6.53053 -2.273609,3.35406 -4.452678,5.46867 -7.279891,5.55167 -3.258317,0.0957 -4.360391,-1.12831 -6.155883,-6.46932 -3.60067,-8.19658 -10.929855,-15.70897 -14.206082,-22.22991 -4.027488,6.51888 -13.165228,13.90932 -16.305035,21.43169 -2.521913,5.86091 -4.007139,6.03242 -6.828745,5.72135 -2.821609,-0.31106 -4.886143,-2.82795 -6.635882,-5.97819 -3.393228,-2.21473 -5.545543,-4.35656 -5.677876,-7.1819 -0.152512,-3.25615 1.052044,-4.37941 6.3609,-6.26785 9.970315,-4.58907 18.814611,-14.76344 26.217038,-16.17648 -0.139742,-0.11039 -0.255545,-0.23337 -0.342183,-0.36902 -4.089587,-6.4032 -2.11207,-21.45002 -6.134383,-30.34003 -2.566461,-5.84154 -1.678969,-7.04473 0.472864,-8.89618 2.151832,-1.8514406 5.400571,-1.6448406 8.897837,-0.7760503 3.933925,-0.9712103 6.968235,-1.0845903 9.124807,0.7455003 2.485408,2.10915 2.485408,3.75617 0.245893,8.92673 -3.452453,10.44864 -2.026883,23.89846 -6.080649,30.25582 -0.03001,0.0471 -0.06341,0.0927 -0.09998,0.13702 z" />
    <path
       style="fill:none;fill-rule:evenodd;stroke:none;stroke-width:0.26458332"
       inkscape:connector-curvature="0"
       id="path75"
       d="m 47.05287,43.811997 c -0.412141,-0.80492 -1.597162,-3.55955 -2.585018,-7.45503 -0.249053,-0.9821 -0.85738,-4.2558 -0.424593,-3.99534 1.020746,0.6143 3.191084,16.06455 0.777608,-6.14992 -0.163862,-1.50822 0.861515,-0.30386 1.766617,8.60757 0.120285,1.18432 0.113001,2.47092 0.278114,3.5592 0.168304,1.10927 0.611899,5.58612 0.557461,4.34132 -1.791073,-40.9553706 0.104982,-13.62833 0.454634,-3.38925 0.136454,3.99592 0.192736,-13.20538 0.549344,-17.35225 0.124285,-1.44486 0.316116,5.92623 0.327297,7.33217 0.01712,2.15268 -0.206533,11.77617 0.109104,14.37183 0.22297,-2.54854 0.426627,-15.89651 0.677534,-18.98068 0.210357,-2.58595 0.697117,-10.05453 0.66824,-7.63803 -0.05681,4.75396 -0.08125,17.28355 -0.354579,21.8594 -0.0584,0.97775 1.425165,-11.24719 2.409992,-17.06697 -0.187399,4.99054 -1.574144,17.15746 -1.661449,18.99044 -0.04928,1.0347 2.360063,-14.5049 2.952287,-16.20872 0.112631,-0.32404 -0.543906,10.00783 -1.685507,13.89007 -0.511442,1.73926 -0.577963,4.80425 -1.308078,5.73387 -1.028923,1.31008 -2.070413,-0.0761 -3.105619,-0.11413 z" />
    <path
       style="fill:none;fill-rule:evenodd;stroke:none;stroke-width:0.26458332"
       inkscape:connector-curvature="0"
       id="path77"
       d="m 43.361332,59.113417 c -0.3224,0.84488 -1.576551,3.56872 -3.810449,6.90942 -0.563203,0.84225 -2.588977,3.48485 -2.685013,2.98895 -0.226497,-1.16961 9.803032,-13.12072 -5.090599,3.53722 -1.011185,1.13098 -0.802283,-0.4369 5.214575,-7.07244 0.799631,-0.88185 1.76064,-1.73735 2.458897,-2.58825 0.711737,-0.86732 3.741856,-4.19257 2.853221,-3.31918 -29.237309,28.73552 -10.198068,9.04111 -2.822913,1.92999 2.87824,-2.7752 -9.94247,8.69289 -13.262819,11.20268 -1.156907,0.87444 4.192524,-4.20034 5.229863,-5.14941 1.588291,-1.45314 8.889592,-7.72631 10.607344,-9.69771 -2.043129,1.53961 -12.098875,10.3198 -14.558751,12.19705 -2.062506,1.57399 -7.938434,6.20973 -6.123305,4.61424 3.570893,-3.1388 12.898549,-11.50457 16.481962,-14.36329 0.765686,-0.61084 -9.311918,6.46674 -14.295829,9.62906 3.834088,-3.20006 13.803783,-10.31077 15.224368,-11.47239 0.80191,-0.65572 -12.35843,7.95181 -14.020889,8.65178 -0.316172,0.13312 7.801215,-6.29235 11.45015,-8.0417 1.634749,-0.78372 3.956995,-2.78516 5.136377,-2.86462 1.662057,-0.11197 1.328833,1.58953 1.99325,2.3843 z" />
    <path
       style="fill:none;fill-rule:evenodd;stroke:none;stroke-width:0.26458332"
       inkscape:connector-curvature="0"
       id="path79"
       d="m 43.361332,59.113417 c -0.3224,0.84488 -1.576551,3.56872 -3.810449,6.90942 -0.563203,0.84225 -2.588977,3.48485 -2.685013,2.98895 -0.226497,-1.16961 9.803032,-13.12072 -5.090599,3.53722 -1.011185,1.13098 -0.802283,-0.4369 5.214575,-7.07244 0.799631,-0.88185 1.76064,-1.73735 2.458897,-2.58825 0.711737,-0.86732 3.741856,-4.19257 2.853221,-3.31918 -29.237309,28.73552 -10.198068,9.04111 -2.822913,1.92999 2.87824,-2.7752 -9.94247,8.69289 -13.262819,11.20268 -1.156907,0.87444 4.192524,-4.20034 5.229863,-5.14941 1.588291,-1.45314 8.889592,-7.72631 10.607344,-9.69771 -2.043129,1.53961 -12.098875,10.3198 -14.558751,12.19705 -2.062506,1.57399 -7.938434,6.20973 -6.123305,4.61424 3.570893,-3.1388 12.898549,-11.50457 16.481962,-14.36329 0.765686,-0.61084 -9.311918,6.46674 -14.295829,9.62906 3.834088,-3.20006 13.803783,-10.31077 15.224368,-11.47239 0.80191,-0.65572 -12.35843,7.95181 -14.020889,8.65178 -0.316172,0.13312 7.801215,-6.29235 11.45015,-8.0417 1.634749,-0.78372 3.956995,-2.78516 5.136377,-2.86462 1.662057,-0.11197 1.328833,1.58953 1.99325,2.3843 z" />
    <path
       style="fill:none;fill-rule:evenodd;stroke:none;stroke-width:0.26458332"
       inkscape:connector-curvature="0"
       id="path81"
       d="m 54.05496,54.268827 c 0.839126,0.3371 3.54067,1.6386 6.841876,3.93046 0.832286,0.57782 3.439131,2.6494 2.941627,2.73677 -1.173382,0.20605 -12.947629,-10.03053 3.447843,5.15155 1.11315,1.03078 -0.450839,0.79454 -6.980359,-5.33721 -0.867762,-0.8149 -1.706353,-1.79069 -2.544937,-2.50369 -0.854771,-0.72677 -4.126629,-3.81446 -3.268887,-2.91072 28.220884,29.73437 8.861761,10.35431 1.880433,2.85617 -2.724544,-2.92624 8.518046,10.09267 10.969503,13.45631 0.85412,1.172 -4.126529,-4.26519 -5.057351,-5.31893 -1.4252,-1.61341 -7.569989,-9.02308 -9.511107,-10.77498 1.503717,2.06969 10.107065,12.27714 11.941106,14.7694 1.537753,2.08966 6.07024,8.0456 4.506672,6.2029 -3.076006,-3.62513 -11.277711,-13.09736 -14.073457,-16.73012 -0.597382,-0.77623 6.30324,9.42336 9.378098,14.4617 -3.132656,-3.88935 -10.068288,-13.98163 -11.204938,-15.42227 -0.64163,-0.81323 7.734911,12.49533 8.405757,14.16975 0.127585,0.31845 -6.155237,-7.90984 -7.840633,-11.58876 -0.755071,-1.64817 -2.715684,-4.005 -2.774543,-5.18559 -0.08295,-1.66375 1.61248,-1.30089 2.418718,-1.95133 z" />
    <path
       inkscape:connector-curvature="0"
       style="fill:#ba00f2;fill-opacity:1;fill-rule:evenodd;stroke:#6c11a2;stroke-width:0.52916664"
       id="path83"
       d="m 50.346615,51.893577 c 0.678072,1.36101 1.288061,2.45354 1.829964,3.27761 4.424971,6.72905 7.492606,8.13225 7.492606,12.98635 0,5.63037 -3.2893,11.06121 -9.867897,16.29253 -2.385314,-1.35156 -3.943802,-2.301 -4.675471,-2.84834 -5.250415,-3.92762 -7.417048,-8.39984 -7.417048,-13.05677 0,-4.8587 2.114153,-5.81059 8.572878,-13.3853 0.598355,-0.70174 1.227632,-1.75603 1.887834,-3.16285 -0.507902,0.11404 -0.964888,0.23053 -1.370955,0.3495 -7.728759,2.26423 -9.967531,4.78757 -14.609532,3.36837 -5.384347,-1.64616 -9.616188,-6.37955 -12.695531,-14.20019 1.989905,-1.88593 3.353523,-3.09873 4.090855,-3.6384 5.291082,-3.87267 10.201349,-4.63708 14.654787,-3.27553 4.646398,1.42055 4.93858,3.72063 10.293964,12.11177 0.06624,0.10379 0.138334,0.20995 0.216275,0.31847 0.121878,-0.1537 0.236223,-0.30228 0.34304,-0.44573 4.809808,-6.45958 5.079188,-9.82214 9.640552,-11.48234 5.290814,-1.9257 11.519143,-0.69222 18.684991,3.70042 -0.454229,2.70372 -0.813379,4.49295 -1.077457,5.36769 -1.895018,6.27711 -5.356495,9.84267 -9.732571,11.43543 -4.565685,1.66177 -6.183257,7.9e-4 -15.510169,-3.47783 -0.226816,-0.0846 -0.477189,-0.16288 -0.751115,-0.23486 z" />
    <path
       style="fill:none;fill-rule:evenodd;stroke:none;stroke-width:0.26458332"
       inkscape:connector-curvature="0"
       id="path89"
       d="m 46.58223,45.553287 c -0.38825,-0.63885 -1.715675,-2.52043 -3.589034,-4.25132 -0.472302,-0.43638 -2.045406,-1.59111 -1.918107,-0.97963 0.300233,1.44219 7.720623,5.94476 -2.944529,0.4267 -0.724096,-0.37465 -0.14091,1.13372 4.137117,3.26205 0.568542,0.28285 1.185423,0.40365 1.708161,0.73734 0.532828,0.34014 2.681922,1.39435 2.084744,1.19437 -19.647857,-6.57962 -6.534128,-1.24188 -1.622597,0.27042 1.916785,0.59019 -6.330836,-1.0803 -8.317256,-1.01931 -0.692116,0.0213 2.843353,1.02905 3.517559,1.18692 1.03229,0.24172 5.645464,0.91654 6.891824,1.60676 -1.220769,0.0426 -7.619918,-1.03739 -9.097367,-1.01138 -1.238779,0.0218 -4.817216,-0.0786 -3.65868,0.12776 2.279185,0.40592 8.286922,1.6451 10.479498,1.74024 0.4685,0.0203 -5.385041,0.78449 -8.170114,1.52483 2.391897,0.2534 8.218157,-0.38576 9.096571,-0.31766 0.495861,0.0384 -6.941889,1.71747 -7.755567,2.34502 -0.154747,0.11935 4.795678,0.28093 6.650836,-0.86806 0.831123,-0.51475 2.300399,-0.29346 2.742084,-1.18602 0.62245,-1.25784 -0.048,-2.80645 -0.07201,-4.20968 z" />
    <path
       style="fill:none;fill-rule:evenodd;stroke:none;stroke-width:0.26458332"
       inkscape:connector-curvature="0"
       id="path91"
       d="m 51.52158,44.766877 c 0.483407,-0.57025 2.088829,-2.221 4.209896,-3.63753 0.534752,-0.35713 2.26913,-1.25154 2.04774,-0.66751 -0.522144,1.37747 -8.555535,4.6638 2.841527,0.88207 0.773793,-0.25675 -0.03818,1.14181 -4.596482,2.57471 -0.605787,0.19043 -1.233971,0.21323 -1.802474,0.46105 -0.579479,0.25259 -2.867027,0.95763 -2.245918,0.85353 20.435239,-3.42502 6.647955,-0.20442 1.560314,0.52092 -1.98551,0.28308 6.421893,-0.0766 8.374317,0.29435 0.680267,0.12926 -2.969326,0.57158 -3.659929,0.62203 -1.057396,0.0773 -5.719336,0.0221 -7.058326,0.50886 1.19907,0.23308 7.688387,0.16741 9.143576,0.42422 1.220116,0.21533 4.770197,0.67598 3.593651,0.69853 -2.314623,0.0444 -8.442249,0.32849 -10.622712,0.0795 -0.465912,-0.0532 5.196023,1.61724 7.830992,2.78414 -2.402091,-0.12389 -8.056631,-1.66661 -8.934886,-1.73677 -0.495769,-0.0396 6.587752,2.78228 7.293242,3.52939 0.13417,0.14209 -4.780584,-0.47273 -6.433159,-1.89779 -0.740367,-0.63843 -2.226169,-0.64971 -2.522791,-1.60037 -0.418015,-1.33973 0.486439,-2.76439 0.72966,-4.14659 z" />
    <path
       style="fill:none;fill-rule:evenodd;stroke:none;stroke-width:0.26458332"
       inkscape:connector-curvature="0"
       id="path93"
       d="m 50.598586,54.361567 c 0.535138,0.52201 2.334466,4.8845 3.599579,7.09921 0.318956,0.55837 1.090211,2.35091 0.523042,2.08932 -1.337688,-0.61696 -4.055636,-8.86002 -1.078135,2.77307 0.202155,0.78982 -1.136361,-0.11773 -2.247797,-4.76488 -0.147708,-0.6176 -0.126637,-1.24584 -0.334192,-1.83025 -0.211561,-0.59569 -0.755309,-2.92684 -0.694791,-2.29999 1.991183,20.62438 -0.259813,6.64603 -0.628496,1.52018 -0.143883,-2.00042 -0.371512,6.41159 -0.877787,8.33338 -0.176406,0.6696 -0.363061,-3.00196 -0.365223,-3.6944 -0.0033,-1.06021 0.376907,-5.70695 -0.01527,-7.07663 -0.316151,1.17989 -0.703311,7.65798 -1.061006,9.09171 -0.299919,1.20212 -1.007084,4.71143 -0.947513,3.53617 0.117198,-2.31208 0.261221,-8.44459 0.661739,-10.60238 0.08558,-0.46106 -1.975752,5.07055 -3.323616,7.61771 0.29115,-2.3876 2.224553,-7.92075 2.355802,-8.79197 0.07409,-0.4918 -3.235042,6.37762 -4.029543,7.02928 -0.151104,0.12393 0.805058,-4.73597 2.341917,-6.28511 0.688522,-0.69403 1.088392,-1.45174 1.772459,-2.40501 1.168758,-1.6287 2.459141,-1.96774 3.821002,-1.6287 z" />
    <path
       style="fill:#5218d8;fill-opacity:1;fill-rule:evenodd;stroke:#6c11a2;stroke-width:0.52916664"
       inkscape:connector-curvature="0"
       id="Combined-Shape-Copy-2"
       d="m 50.702858,51.509917 -0.162115,-0.0768 0.74377,-11.79501 0.0083,-0.051 0.06915,-0.26133 c 0.06038,-0.22821 0.0892,-0.4633 0.08569,-0.699 -0.02167,-1.45341 -1.242383,-2.6165 -2.728979,-2.59518 -0.23141,0.003 -0.461449,0.0353 -0.684623,0.0953 -1.458658,0.39195 -2.315485,1.86669 -1.917141,3.2935 l 0.03188,0.11419 0.0092,0.0546 0.760664,12.10465 -9.614262,7.61794 -0.04346,0.028 -0.24048,0.12348 c -0.209989,0.10783 -0.403984,0.24372 -0.576789,0.40404 -1.065606,0.98862 -1.113123,2.67405 -0.102552,3.76454 0.157311,0.16976 0.335039,0.31928 0.528934,0.445 1.267304,0.82173 2.936576,0.47169 3.730363,-0.77906 l 0.06353,-0.1001 0.03437,-0.0434 8.235088,-8.40816 7.39699,9.00788 0.02875,0.043 0.127659,0.23829 c 0.111474,0.20807 0.250735,0.39967 0.414046,0.56965 1.007065,1.04819 2.69307,1.06628 3.765759,0.0368 0.166979,-0.16024 0.313376,-0.34055 0.435698,-0.53662 0.799491,-1.28145 0.420364,-2.94436 -0.84405,-3.7162 l -0.101193,-0.0618 -0.04395,-0.0336 -8.963912,-8.47801 c -0.133204,-0.12598 -0.283445,-0.22848 -0.446323,-0.30561 z" />
  </g>
</svg>
