<?xml version="1.0" encoding="UTF-8" standalone="no"?>
<svg
   xmlns:dc="http://purl.org/dc/elements/1.1/"
   xmlns:cc="http://creativecommons.org/ns#"
   xmlns:rdf="http://www.w3.org/1999/02/22-rdf-syntax-ns#"
   xmlns:svg="http://www.w3.org/2000/svg"
   xmlns="http://www.w3.org/2000/svg"
   xmlns:sodipodi="http://sodipodi.sourceforge.net/DTD/sodipodi-0.dtd"
   xmlns:inkscape="http://www.inkscape.org/namespaces/inkscape"
   id="Layer_1"
   enable-background="new 0 0 513 513"
   height="512"
   viewBox="0 0 513 513"
   width="512"
   version="1.1"
   sodipodi:docname="weather_snow.svg"
   inkscape:version="0.92.5 (2060ec1f9f, 2020-04-08)">
  <metadata
     id="metadata31">
    <rdf:RDF>
      <cc:Work
         rdf:about="">
        <dc:format>image/svg+xml</dc:format>
        <dc:type
           rdf:resource="http://purl.org/dc/dcmitype/StillImage" />
      </cc:Work>
    </rdf:RDF>
  </metadata>
  <defs
     id="defs29" />
  <sodipodi:namedview
     pagecolor="#ffffff"
     bordercolor="#666666"
     borderopacity="1"
     objecttolerance="10"
     gridtolerance="10"
     guidetolerance="10"
     inkscape:pageopacity="0"
     inkscape:pageshadow="2"
     inkscape:window-width="2892"
     inkscape:window-height="1767"
     id="namedview27"
     showgrid="false"
     inkscape:zoom="0.4609375"
     inkscape:cx="-29.288136"
     inkscape:cy="256"
     inkscape:window-x="388"
     inkscape:window-y="156"
     inkscape:window-maximized="0"
     inkscape:current-layer="Layer_1" />
  <path
     inkscape:connector-curvature="0"
     id="path2"
     d="m 424.5,337 h -312 C 50.743,337 0.5,286.757 0.5,225 0.5,171.12 38.443,126.467 88.581,115.564 90.924,51.444 143.818,0 208.5,0 c 48.541,0 89.515,28.546 108.619,68.999 61.918,-18.408 124.285,28.529 123.37,93.457 40.917,7.54 72.011,43.479 72.011,86.544 0,48.523 -39.477,88 -88,88 z M 208.5,32 c -51.437,0 -92.228,44.178 -87.644,95.885 0.784,8.851 -5.806,16.67 -14.691,17.363 C 64.857,148.476 32.5,183.507 32.5,225 c 0,44.112 35.888,80 80,80 h 312 c 30.879,0 56,-25.122 56,-56 0,-29.087 -22.773,-56 -57.604,-56 -10.096,0 -17.695,-9.263 -15.68,-19.184 10.678,-52.595 -44.411,-94.137 -91.872,-69.782 -8.886,4.559 -19.727,-0.056 -22.617,-9.595 C 281.588,57.676 246.952,32 208.5,32 Z" />
  <path
     style=""
     d="m 272.5,385 a 16,16 0 0 1 -16,16 16,16 0 0 1 -16,-16 16,16 0 0 1 16,-16 16,16 0 0 1 16,16 z"
     id="circle4" />
  <path
     style=""
     d="m 208.5,441 a 16,16 0 0 1 -16,16 16,16 0 0 1 -16,-16 16,16 0 0 1 16,-16 16,16 0 0 1 16,16 z"
     id="circle6" />
  <path
     style=""
     d="m 80.5,441 a 16,16 0 0 1 -16,16 16,16 0 0 1 -16,-16 16,16 0 0 1 16,-16 16,16 0 0 1 16,16 z"
     id="circle8" />
  <path
     style=""
     d="m 336.5,441 a 16,16 0 0 1 -16,16 16,16 0 0 1 -16,-16 16,16 0 0 1 16,-16 16,16 0 0 1 16,16 z"
     id="circle10" />
  <path
     style=""
     d="m 464.5,441 a 16,16 0 0 1 -16,16 16,16 0 0 1 -16,-16 16,16 0 0 1 16,-16 16,16 0 0 1 16,16 z"
     id="circle12" />
  <path
     style=""
     d="m 400.5,385 a 16,16 0 0 1 -16,16 16,16 0 0 1 -16,-16 16,16 0 0 1 16,-16 16,16 0 0 1 16,16 z"
     id="circle14" />
  <path
     style=""
     d="m 144.5,385 a 16,16 0 0 1 -16,16 16,16 0 0 1 -16,-16 16,16 0 0 1 16,-16 16,16 0 0 1 16,16 z"
     id="circle16" />
  <path
     style=""
     d="m 272.5,497 a 16,16 0 0 1 -16,16 16,16 0 0 1 -16,-16 16,16 0 0 1 16,-16 16,16 0 0 1 16,16 z"
     id="circle18" />
  <path
     style=""
     d="m 400.5,497 a 16,16 0 0 1 -16,16 16,16 0 0 1 -16,-16 16,16 0 0 1 16,-16 16,16 0 0 1 16,16 z"
     id="circle20" />
  <path
     style=""
     d="m 144.5,497 a 16,16 0 0 1 -16,16 16,16 0 0 1 -16,-16 16,16 0 0 1 16,-16 16,16 0 0 1 16,16 z"
     id="circle22" />
</svg>
