<?xml version="1.0" encoding="UTF-8" standalone="no"?>
<!-- Generator: Adobe Illustrator 17.1.0, SVG Export Plug-In . SVG Version: 6.00 Build 0)  -->

<svg
   xmlns:dc="http://purl.org/dc/elements/1.1/"
   xmlns:cc="http://creativecommons.org/ns#"
   xmlns:rdf="http://www.w3.org/1999/02/22-rdf-syntax-ns#"
   xmlns:svg="http://www.w3.org/2000/svg"
   xmlns="http://www.w3.org/2000/svg"
   xmlns:sodipodi="http://sodipodi.sourceforge.net/DTD/sodipodi-0.dtd"
   xmlns:inkscape="http://www.inkscape.org/namespaces/inkscape"
   version="1.1"
   id="Capa_1"
   x="0px"
   y="0px"
   viewBox="0 0 219.0894 550.75096"
   xml:space="preserve"
   sodipodi:docname="beer_bottle_lager.svg"
   inkscape:version="0.92.3 (2405546, 2018-03-11)"
   width="219.0894"
   height="550.75098"><metadata
   id="metadata1048"><rdf:RDF><cc:Work
       rdf:about=""><dc:format>image/svg+xml</dc:format><dc:type
         rdf:resource="http://purl.org/dc/dcmitype/StillImage" /><dc:title /></cc:Work></rdf:RDF></metadata><defs
   id="defs1046" /><sodipodi:namedview
   pagecolor="#ffffff"
   bordercolor="#666666"
   borderopacity="1"
   objecttolerance="10"
   gridtolerance="10"
   guidetolerance="10"
   inkscape:pageopacity="0"
   inkscape:pageshadow="2"
   inkscape:window-width="2087"
   inkscape:window-height="1622"
   id="namedview1044"
   showgrid="false"
   inkscape:zoom="2.0166532"
   inkscape:cx="66.71949"
   inkscape:cy="290.77048"
   inkscape:window-x="1039"
   inkscape:window-y="302"
   inkscape:window-maximized="0"
   inkscape:current-layer="Capa_1"
   fit-margin-top="0"
   fit-margin-left="0"
   fit-margin-right="0"
   fit-margin-bottom="0" />
<path
   d="m 177.12906,199.787 c -3.2111,-3.028 -4.9077,-6.476 -4.9077,-9.968 0,-0.17 -0.008,-0.339 -0.0213,-0.508 L 161.79942,67.34 c 5.46904,-3.444 8.99535,-8.761 8.99535,-14.731 v -4.608 c 0,-1.575 -0.24614,-3.144 -0.73339,-4.662 -0.15698,-0.487 -0.34033,-0.964 -0.54252,-1.434 4.82733,-4.541 7.57252,-10.333 7.57252,-16.44 C 177.09138,11.424 162.74504,0 145.11225,0 138.71642,0 132.60817,1.497 127.43677,4.241 122.26535,1.497 116.15836,0 109.76127,0 103.3642,0 97.2572,1.497 92.08579,4.241 86.91437,1.497 80.80739,0 74.4103,0 56.77751,0 42.43242,11.424 42.43242,25.465 c 0,6.125 2.73139,11.751 7.27238,16.149 -0.108,0.237 -0.21725,0.475 -0.31269,0.715 -0.72837,1.833 -1.09758,3.741 -1.09758,5.672 v 4.608 c 0,5.971 3.52756,11.288 8.99661,14.731 l -10.4006,121.971 c -0.0138,0.169 -0.0213,0.338 -0.0213,0.508 0,3.492 -1.69785,6.939 -4.90895,9.968 C 21.07496,219.491 0,261.489 0,310.901 c 0,30.6 1.63506,199.137 1.65139,200.777 0,23.006 17.27363,39.073 42.00801,39.073 H 175.43 c 24.73438,0 42.00801,-16.067 42.00801,-39.016 0.0164,-1.698 1.65139,-170.235 1.65139,-200.835 0,-46.958 -21.10887,-91.441 -41.96029,-111.113 z M 74.4103,15 c 4.02361,0 7.77596,1.451 10.29511,3.981 1.78576,1.795 4.50458,2.841 7.38038,2.841 2.87579,0 5.59462,-1.046 7.38038,-2.841 2.51914,-2.53 6.2715,-3.981 10.2951,-3.981 4.02361,0 7.77471,1.451 10.29511,3.981 1.78576,1.795 4.50458,2.841 7.38039,2.841 2.87579,0 5.59462,-1.046 7.38037,-2.841 2.51915,-2.53 6.27276,-3.981 10.29511,-3.981 7.24601,0 13.14077,4.694 13.14077,10.465 0,1.881 -0.64925,3.683 -1.80209,5.258 -2.85947,-0.97 -5.98894,-1.508 -9.24901,-1.508 H 93.66685 c -3.27766,-0.442 -6.74997,0.512 -8.96144,2.733 -2.5179,2.53 -6.2715,3.981 -10.29511,3.981 -7.24601,0 -13.14076,-4.694 -13.14076,-10.465 C 61.26954,19.693 67.16429,15 74.4103,15 Z m 124.19181,496.679 c 0,11.982 -7.16439,24.073 -23.17091,24.073 H 43.6606 c -17.10284,0 -23.1709,-12.968 -23.1709,-24.131 -0.0164,-1.698 -1.65139,-170.178 -1.65139,-200.72 0,-45.377 19.4487,-84.392 37.51725,-101.438 1.54213,-1.454 2.89714,-2.975 4.06756,-4.547 h 59.90577 c 5.20156,0 9.41856,-3.357 9.41856,-7.5 0,-4.143 -4.217,-7.5 -9.41856,-7.5 H 65.71886 L 75.82559,71.396 h 33.71843 c 5.20155,0 9.41855,-3.357 9.41855,-7.5 0,-4.143 -4.217,-7.5 -9.41855,-7.5 H 71.88613 c -2.62212,0 -4.75574,-1.699 -4.75574,-3.787 v -2.353 c 2.33956,0.436 4.77458,0.673 7.27866,0.673 8.11,0 15.75033,-2.412 21.60993,-6.715 h 51.18168 c 2.17632,0 4.07133,1.168 4.60755,2.839 0.098,0.305 0.14693,0.623 0.14693,0.947 v 4.608 c 0,2.088 -2.13235,3.787 -4.75448,3.787 h -2.05074 c -5.20155,0 -9.41855,3.357 -9.41855,7.5 0,3.624 3.22742,6.647 7.51727,7.347 l 10.11929,118.672 h -1.44167 c -5.20155,0 -9.41855,3.357 -9.41855,7.5 0,4.143 4.217,7.5 9.41855,7.5 h 6.73866 c 1.16916,1.572 2.52544,3.093 4.06756,4.547 18.64498,17.588 37.51851,58.08 37.51851,101.438 9.5e-4,30.544 -1.63255,199.024 -1.64888,200.78 z"
   id="path1011"
   inkscape:connector-curvature="0"
   sodipodi:nodetypes="csccssccsscscssccssccscscsscscscscscscsscsccssscsscsccsssccssssscscscsssssccssscccc"
   style="stroke-width:1.120628;fill:#ffd700" />
<g
   id="g1013"
   transform="translate(-188.14505)">
</g>
<g
   id="g1015"
   transform="translate(-188.14505)">
</g>
<g
   id="g1017"
   transform="translate(-188.14505)">
</g>
<g
   id="g1019"
   transform="translate(-188.14505)">
</g>
<g
   id="g1021"
   transform="translate(-188.14505)">
</g>
<g
   id="g1023"
   transform="translate(-188.14505)">
</g>
<g
   id="g1025"
   transform="translate(-188.14505)">
</g>
<g
   id="g1027"
   transform="translate(-188.14505)">
</g>
<g
   id="g1029"
   transform="translate(-188.14505)">
</g>
<g
   id="g1031"
   transform="translate(-188.14505)">
</g>
<g
   id="g1033"
   transform="translate(-188.14505)">
</g>
<g
   id="g1035"
   transform="translate(-188.14505)">
</g>
<g
   id="g1037"
   transform="translate(-188.14505)">
</g>
<g
   id="g1039"
   transform="translate(-188.14505)">
</g>
<g
   id="g1041"
   transform="translate(-188.14505)">
</g>
<text
   xml:space="preserve"
   style="font-style:normal;font-variant:normal;font-weight:normal;font-stretch:normal;font-size:61.85366058px;line-height:125%;font-family:'Noto Sans Symbols';-inkscape-font-specification:'Noto Sans Symbols';letter-spacing:0px;word-spacing:0px;fill:#ffd700;fill-opacity:1;stroke:none;stroke-width:1.54634142px;stroke-linecap:butt;stroke-linejoin:miter;stroke-opacity:1;"
   x="24.204636"
   y="396.42883"
   id="text1595"><tspan
     sodipodi:role="line"
     id="tspan1593"
     x="24.204636"
     y="396.42883"
     style="font-style:normal;font-variant:normal;font-weight:bold;font-stretch:normal;font-family:'Liberation Sans';-inkscape-font-specification:'Liberation Sans Bold';stroke-width:1.54634142px;fill:#ffd700;">Lager</tspan></text>


</svg>