<?xml version="1.0" encoding="UTF-8" standalone="no"?>
<!-- Generator: Adobe Illustrator 19.0.0, SVG Export Plug-In . SVG Version: 6.00 Build 0)  -->

<svg
   xmlns:dc="http://purl.org/dc/elements/1.1/"
   xmlns:cc="http://creativecommons.org/ns#"
   xmlns:rdf="http://www.w3.org/1999/02/22-rdf-syntax-ns#"
   xmlns:svg="http://www.w3.org/2000/svg"
   xmlns="http://www.w3.org/2000/svg"
   xmlns:sodipodi="http://sodipodi.sourceforge.net/DTD/sodipodi-0.dtd"
   xmlns:inkscape="http://www.inkscape.org/namespaces/inkscape"
   version="1.1"
   id="Layer_1"
   x="0px"
   y="0px"
   viewBox="0 0 463 463"
   style="enable-background:new 0 0 463 463;"
   xml:space="preserve"
   sodipodi:docname="beer_glass_12.svg"
   inkscape:version="0.92.3 (2405546, 2018-03-11)"><metadata
   id="metadata51"><rdf:RDF><cc:Work
       rdf:about=""><dc:format>image/svg+xml</dc:format><dc:type
         rdf:resource="http://purl.org/dc/dcmitype/StillImage" /></cc:Work></rdf:RDF></metadata><defs
   id="defs49">
	

		
	
			
			
			
			
		</defs><sodipodi:namedview
   pagecolor="#ffffff"
   bordercolor="#666666"
   borderopacity="1"
   objecttolerance="10"
   gridtolerance="10"
   guidetolerance="10"
   inkscape:pageopacity="0"
   inkscape:pageshadow="2"
   inkscape:window-width="2193"
   inkscape:window-height="1444"
   id="namedview47"
   showgrid="false"
   inkscape:zoom="2.040444"
   inkscape:cx="110.938"
   inkscape:cy="227.31565"
   inkscape:window-x="1282"
   inkscape:window-y="491"
   inkscape:window-maximized="0"
   inkscape:current-layer="Layer_1" />
<path
   inkscape:connector-curvature="0"
   id="path2"
   d="M 335.055,47.472 C 335.04,30.116 320.916,16 303.556,16 c -0.981,0 -1.976,0.054 -2.992,0.164 C 294.797,10.932 287.351,8 279.556,8 276.319,8 273.144,8.51 270.062,9.521 264.197,3.473 256.153,0 247.556,0 c -5.647,0 -11.161,1.552 -16,4.446 C 226.716,1.552 221.203,0 215.556,0 206.958,0 198.914,3.473 193.05,9.521 189.968,8.51 186.793,8 183.556,8 175.761,8 168.314,10.932 162.548,16.164 161.531,16.054 160.537,16 159.556,16 c -17.109,0 -31.065,13.713 -31.48,30.723 -0.728,4.147 -4.716,28.669 -4.125,64.879 0.586,35.907 6.033,90.504 28.647,146.698 13.761,34.195 21.275,65.174 22.971,94.708 1.502,26.153 -1.415,51.679 -9.18,80.33 -1.948,7.186 -0.487,14.677 4.007,20.551 4.43,5.791 11.158,9.111 18.459,9.111 h 85.29 c 7.301,0 14.029,-3.32 18.459,-9.111 4.494,-5.874 5.955,-13.365 4.007,-20.551 -7.765,-28.651 -10.682,-54.177 -9.18,-80.33 1.696,-29.534 9.21,-60.513 22.971,-94.708 22.615,-56.194 28.061,-110.792 28.647,-146.698 0.565,-34.448 -3.017,-58.317 -3.994,-64.13 z M 159.556,31 c 1.159,0 2.387,0.166 3.864,0.523 2.777,0.67 5.697,-0.296 7.526,-2.494 3.188,-3.832 7.784,-6.029 12.61,-6.029 2.748,0 5.46,0.749 8.063,2.224 3.479,1.973 7.892,0.868 10.034,-2.508 3.063,-4.832 8.26,-7.716 13.903,-7.716 4.002,0 7.901,1.527 10.98,4.301 2.853,2.57 7.187,2.57 10.039,0 3.079,-2.773 6.979,-4.301 10.98,-4.301 5.643,0 10.84,2.884 13.903,7.716 2.141,3.378 6.556,4.482 10.034,2.508 2.603,-1.476 5.316,-2.224 8.063,-2.224 4.826,0 9.422,2.197 12.61,6.029 1.828,2.198 4.745,3.166 7.526,2.494 1.478,-0.357 2.706,-0.523 3.864,-0.523 6.396,0 11.942,3.666 14.679,9 h -46.677 c -4.142,0 -7.5,3.358 -7.5,7.5 l -0.001,48 c 0,4.687 -3.813,8.5 -8.5,8.5 -4.687,0 -8.5,-3.813 -8.5,-8.5 L 247.053,48.035 C 247.05,42.139 242.566,40 239.553,40 h -31.997 c -4.142,0 -7.5,3.358 -7.5,7.5 v 96 c 0,4.687 -3.813,8.5 -8.5,8.5 -4.687,0 -8.5,-3.813 -8.5,-8.5 v -96 c 0,-4.142 -3.358,-7.5 -7.5,-7.5 h -30.678 c 2.736,-5.334 8.281,-9 14.678,-9 z m -17.554,24 h 26.053 v 81 h -27.902 c -2.848,-38.678 0.193,-68.662 1.849,-81 z m 154.487,197.7 c -26.963,66.999 -31.256,122.195 -14.354,184.562 0.715,2.64 0.189,5.379 -1.443,7.513 -0.921,1.205 -2.997,3.226 -6.545,3.226 h -85.29 c -3.548,0 -5.624,-2.021 -6.545,-3.226 -1.633,-2.134 -2.159,-4.873 -1.443,-7.513 C 197.771,374.895 193.478,319.699 166.515,252.7 152.169,217.051 144.896,181.856 141.528,151 h 27.764 c 3.138,9.29 11.93,16 22.266,16 10.336,0 19.128,-6.71 22.266,-16 h 107.677 c -3.372,30.833 -10.652,66.017 -25.012,101.7 z M 322.877,136 H 215.056 V 55 h 16.999 c 0.001,10.348 0.001,29.056 0.001,40.5 0,12.958 10.542,23.5 23.5,23.5 12.958,0 23.5,-10.542 23.5,-23.5 L 279.057,55 h 41.948 c 1.666,12.33 4.726,42.301 1.872,81 z"
   style="fill:#40e0d0" /><path
   inkscape:connector-curvature="0"
   id="path4"
   d="m 255.556,416 h -48 c -4.142,0 -7.5,3.358 -7.5,7.5 0,4.142 3.358,7.5 7.5,7.5 h 48 c 4.142,0 7.5,-3.358 7.5,-7.5 0,-4.142 -3.358,-7.5 -7.5,-7.5 z"
   style="fill:#40e0d0" /><path
   inkscape:connector-curvature="0"
   id="path6"
   d="m 253.013,310.812 c 0.556,0.125 1.111,0.186 1.658,0.186 3.428,0 6.522,-2.366 7.309,-5.85 4.232,-18.749 10.362,-37.98 18.738,-58.795 2.687,-6.678 5.206,-13.578 7.487,-20.508 1.295,-3.935 -0.845,-8.174 -4.779,-9.469 -3.936,-1.295 -8.174,0.845 -9.469,4.779 -2.18,6.625 -4.587,13.218 -7.154,19.598 -8.68,21.567 -15.043,41.551 -19.455,61.092 -0.912,4.04 1.624,8.055 5.665,8.967 z"
   style="fill:#40e0d0" /><path
   inkscape:connector-curvature="0"
   id="path8"
   d="m 288.278,198.813 c 0.56,0.127 1.119,0.188 1.669,0.188 3.424,0 6.516,-2.36 7.307,-5.839 1.218,-5.359 2.338,-10.851 3.331,-16.324 0.739,-4.077 -1.965,-7.98 -6.041,-8.719 -4.074,-0.745 -7.979,1.965 -8.718,6.041 -0.954,5.257 -2.03,10.532 -3.199,15.677 -0.918,4.04 1.612,8.058 5.651,8.976 z"
   style="fill:#40e0d0" />
<g
   id="g16">
</g>
<g
   id="g18">
</g>
<g
   id="g20">
</g>
<g
   id="g22">
</g>
<g
   id="g24">
</g>
<g
   id="g26">
</g>
<g
   id="g28">
</g>
<g
   id="g30">
</g>
<g
   id="g32">
</g>
<g
   id="g34">
</g>
<g
   id="g36">
</g>
<g
   id="g38">
</g>
<g
   id="g40">
</g>
<g
   id="g42">
</g>
<g
   id="g44">
</g>
<text
   xml:space="preserve"
   style="font-style:normal;font-variant:normal;font-weight:normal;font-stretch:normal;font-size:72.38492584px;line-height:125%;font-family:'Noto Sans Symbols';-inkscape-font-specification:'Noto Sans Symbols';letter-spacing:0px;word-spacing:0px;fill:#40e0d0;fill-opacity:1;stroke:none;stroke-width:1.80962312px;stroke-linecap:butt;stroke-linejoin:miter;stroke-opacity:1;"
   x="3.8412008"
   y="363.19559"
   id="text875"><tspan
     sodipodi:role="line"
     id="tspan873"
     x="3.8412008"
     y="363.19559"
     style="font-style:normal;font-variant:normal;font-weight:bold;font-stretch:normal;font-family:'Liberation Sans';-inkscape-font-specification:'Liberation Sans Bold';stroke-width:1.80962312px;fill:#40e0d0;">12oz</tspan></text>

</svg>