<?xml version="1.0" encoding="UTF-8" standalone="no"?>
<!-- Created with Inkscape (http://www.inkscape.org/) -->

<svg
   xmlns:dc="http://purl.org/dc/elements/1.1/"
   xmlns:cc="http://creativecommons.org/ns#"
   xmlns:rdf="http://www.w3.org/1999/02/22-rdf-syntax-ns#"
   xmlns:svg="http://www.w3.org/2000/svg"
   xmlns="http://www.w3.org/2000/svg"
   xmlns:sodipodi="http://sodipodi.sourceforge.net/DTD/sodipodi-0.dtd"
   xmlns:inkscape="http://www.inkscape.org/namespaces/inkscape"
   width="96mm"
   height="96mm"
   viewBox="0 0 96 96"
   version="1.1"
   id="svg1072"
   inkscape:version="0.92.5 (2060ec1f9f, 2020-04-08)"
   sodipodi:docname="virginica.svg">
  <defs
     id="defs1066" />
  <sodipodi:namedview
     id="base"
     pagecolor="#ffffff"
     bordercolor="#666666"
     borderopacity="1.0"
     inkscape:pageopacity="0.0"
     inkscape:pageshadow="2"
     inkscape:zoom="0.46807959"
     inkscape:cx="-518.77032"
     inkscape:cy="183.10686"
     inkscape:document-units="mm"
     inkscape:current-layer="layer1"
     showgrid="false"
     inkscape:window-width="2771"
     inkscape:window-height="1850"
     inkscape:window-x="338"
     inkscape:window-y="229"
     inkscape:window-maximized="0" />
  <metadata
     id="metadata1069">
    <rdf:RDF>
      <cc:Work
         rdf:about="">
        <dc:format>image/svg+xml</dc:format>
        <dc:type
           rdf:resource="http://purl.org/dc/dcmitype/StillImage" />
        <dc:title />
      </cc:Work>
    </rdf:RDF>
  </metadata>
  <g
     inkscape:label="Layer 1"
     inkscape:groupmode="layer"
     id="layer1">
    <path
       inkscape:connector-curvature="0"
       style="opacity:1;vector-effect:none;fill:#ba84f2;fill-opacity:1;fill-rule:evenodd;stroke:#6c11a2;stroke-width:0.52916664;stroke-linecap:butt;stroke-linejoin:miter;stroke-miterlimit:4;stroke-dasharray:none;stroke-dashoffset:0;stroke-opacity:1"
       id="Combined-Shape"
       d="m 49.916486,47.749419 c -0.393938,0.0302 -0.796661,0.028 -1.18499,-0.007 0.212434,0.15171 0.42172,0.32256 0.622565,0.50705 0.178858,-0.1765 0.367771,-0.3445 0.562425,-0.50001 z m 2.571247,-0.98064 c 0.01905,0.004 0.0377,0.009 0.05628,0.0141 7.001722,1.93312 15.222352,13.88848 23.767124,17.63144 5.560271,2.50845 5.699442,3.93102 5.355007,6.62296 -0.344408,2.69195 -2.784713,4.62341 -5.825198,6.2434 -2.173632,3.20659 -4.256882,5.22822 -6.959786,5.30757 -3.115071,0.0915 -4.168669,-1.0787 -5.885232,-6.18487 -3.442362,-7.83619 -10.449269,-15.01827 -13.58146,-21.2525 -3.850404,6.23226 -12.586369,13.29775 -15.588125,20.48938 -2.411029,5.60321 -3.83095,5.76717 -6.528496,5.46978 -2.697546,-0.29738 -4.671306,-2.7036 -6.34411,-5.71534 -3.244035,-2.11735 -5.301715,-4.16501 -5.428229,-6.86611 -0.145806,-3.11299 1.005787,-4.18687 6.081221,-5.99227 9.531934,-4.38729 17.987359,-14.11431 25.064315,-15.46522 -0.133599,-0.10554 -0.244311,-0.22311 -0.327139,-0.3528 -3.909777,-6.12166 -2.019205,-20.50689 -5.864664,-29.00602 -2.453616,-5.5847 -1.605145,-6.73498 0.452072,-8.5050202 2.057217,-1.77005 5.163116,-1.57253 8.506598,-0.74194 3.760972,-0.92851 6.661864,-1.0369 8.723629,0.71273 2.376117,2.0164102 2.376117,3.5910202 0.235056,8.5342302 -3.30065,9.98923 -1.937755,22.84768 -5.813266,28.92552 -0.02871,0.045 -0.06064,0.0887 -0.09559,0.13099 z" />
    <path
       style="fill:none;fill-rule:evenodd;stroke:none;stroke-width:0.26458332"
       inkscape:connector-curvature="0"
       id="Path-2-Copy"
       d="m 47.214122,38.495339 c -0.412142,-0.80493 -1.597163,-3.55955 -2.585019,-7.45502 -0.249055,-0.98212 -0.857382,-4.2558 -0.424593,-3.99535 1.020744,0.61431 3.191081,16.06455 0.777605,-6.14991 -0.163859,-1.50823 0.861518,-0.30387 1.766618,8.60756 0.120285,1.18434 0.113003,2.47093 0.278117,3.5592 0.168301,1.10929 0.611899,5.58612 0.557461,4.34133 -1.791073,-40.9553802 0.104979,-13.62833 0.454631,-3.38926 0.136456,3.99593 0.192735,-13.20537 0.549343,-17.35224 0.124294,-1.44487 0.316117,5.92622 0.327309,7.33217 0.0172,2.15268 -0.206534,11.77616 0.109087,14.37183 0.222965,-2.54854 0.426641,-15.89651 0.677545,-18.98068 0.210344,-2.58595 0.697124,-10.0545302 0.668232,-7.63803 -0.05681,4.75395 -0.08125,17.28355 -0.354568,21.8594 -0.05842,0.97775 1.425151,-11.2472 2.409984,-17.06697 -0.187405,4.99054 -1.574139,17.15747 -1.661451,18.99042 -0.04929,1.03472 2.360056,-14.50489 2.9523,-16.20871 0.112633,-0.32403 -0.543904,10.00785 -1.685528,13.89008 -0.51144,1.73925 -0.577956,4.80425 -1.308074,5.73385 -1.028912,1.31009 -2.070417,-0.0761 -3.10561,-0.11413 z" />
    <path
       style="fill:none;fill-rule:evenodd;stroke:none;stroke-width:0.26458332"
       inkscape:connector-curvature="0"
       id="Path-2-Copy-2"
       d="m 45.340943,53.322599 c -0.262678,0.86531 -1.323768,3.67001 -3.31919,7.1584 -0.503079,0.87948 -2.339581,3.65695 -2.469972,3.16896 -0.307534,-1.15096 8.863898,-13.77258 -4.831456,3.88371 -0.929828,1.19875 -0.830808,-0.37988 4.708525,-7.41896 0.736169,-0.93549 1.635159,-1.85594 2.272361,-2.75347 0.649501,-0.91486 3.440281,-4.44338 2.614734,-3.51013 -27.161601,30.70501 -9.542547,9.73047 -2.681404,2.12221 2.677639,-2.96922 -9.31187,9.36526 -12.449053,12.10055 -1.093092,0.95302 3.889306,-4.48256 4.857916,-5.50168 1.483056,-1.5604 8.328978,-8.3276 9.905029,-10.41402 -1.930754,1.67838 -11.349532,11.13863 -13.672465,13.18291 -1.947685,1.71402 -7.485928,6.74836 -5.786514,5.03014 3.343243,-3.38025 12.064608,-12.37631 15.439879,-15.47803 0.721209,-0.66276 -8.838136,7.10055 -13.58932,10.60283 3.601524,-3.45971 13.050919,-11.24855 14.387012,-12.50644 0.754216,-0.71006 -11.773632,8.79452 -13.383217,9.60875 -0.306115,0.15485 7.34328,-6.82121 10.861299,-8.82083 1.576096,-0.89584 3.753072,-3.0544 4.924039,-3.21593 1.650195,-0.22764 1.436478,1.49296 2.154724,2.23943 z" />
    <path
       style="fill:none;fill-rule:evenodd;stroke:none;stroke-width:0.26458332"
       inkscape:connector-curvature="0"
       id="Path-2-Copy-3"
       d="m 53.157896,49.216769 c 0.8391,0.3371 3.540654,1.63859 6.841861,3.93045 0.832299,0.57782 3.439133,2.6494 2.941611,2.73677 -1.173375,0.20605 -12.947624,-10.03054 3.447864,5.15156 1.113155,1.03077 -0.45085,0.79454 -6.980369,-5.33721 -0.867754,-0.8149 -1.706351,-1.7907 -2.544948,-2.5037 -0.854763,-0.72678 -4.126627,-3.81446 -3.268874,-2.91072 28.220881,29.73437 8.861769,10.3543 1.880446,2.85617 -2.724573,-2.92624 8.518023,10.09266 10.969493,13.45631 0.854128,1.172 -4.126547,-4.26519 -5.057352,-5.31893 -1.425204,-1.61342 -7.569993,-9.02308 -9.511109,-10.77499 1.503707,2.0697 10.107057,12.27715 11.941096,14.76941 1.537758,2.08967 6.070256,8.0456 4.506674,6.2029 -3.075993,-3.62512 -11.277706,-13.09736 -14.073452,-16.73013 -0.597376,-0.77623 6.303248,9.42337 9.378103,14.46171 -3.132666,-3.88935 -10.068295,-13.98164 -11.204945,-15.42226 -0.641641,-0.81325 7.734935,12.49533 8.405759,14.16975 0.127583,0.31843 -6.15524,-7.90986 -7.840635,-11.58877 -0.755068,-1.64817 -2.715684,-4.005 -2.774527,-5.18558 -0.08297,-1.66376 1.61245,-1.3009 2.418715,-1.95133 z" />
    <path
       d="m 49.888197,50.526874 c 1.298294,2.310739 2.433928,4.084963 3.406904,5.322673 5.971043,7.595669 10.110505,9.179579 10.110505,14.658832 0,6.355488 -4.636127,12.485759 -13.908384,18.390809 -10.4833,-5.421741 -15.724949,-11.406237 -15.724949,-17.953495 0,-9.820883 2.852834,-6.558928 11.568221,-15.109168 1.076221,-1.055828 2.226579,-2.818668 3.451068,-5.288516 -1.562893,0.04386 -2.884595,0.143873 -3.965104,0.300027 -10.404053,1.503587 -14.149965,4.547494 -19.309146,1.568839 -5.98423,-3.454998 -9.231364,-11.161048 -9.741402,-23.118151 10.814681,-6.942022 19.30442,-8.633409 25.469216,-5.074163 9.247194,5.33887 4.62201,6.25681 7.926013,19.12658 0.03918,0.152606 0.08412,0.309401 0.134832,0.470385 0.328498,-0.673088 0.605001,-1.290621 0.829511,-1.852599 3.899879,-9.761968 3.136736,-14.527976 8.295917,-17.50663 5.984232,-3.454997 14.281433,-2.414073 24.891606,3.122773 0.604628,12.8368 -2.175457,21.034823 -8.340251,24.594069 -9.247196,5.338871 -7.729564,0.874374 -20.527111,-2.69916 -0.683286,-0.190799 -1.498571,-0.322818 -2.445856,-0.396058 0.306716,0.471956 0.636654,0.960782 0.989815,1.466477 -1.116317,-0.02627 -2.153452,-0.03411 -3.111405,-0.02352 z"
       id="path50"
       style="vector-effect:none;fill:#ba00f2;fill-opacity:1;fill-rule:evenodd;stroke:#6c11a2;stroke-width:0.52916664;stroke-linecap:butt;stroke-linejoin:miter;stroke-miterlimit:4;stroke-dasharray:none;stroke-dashoffset:0;stroke-opacity:1"
       inkscape:connector-curvature="0" />
    <path
       style="fill:none;fill-rule:evenodd;stroke:none;stroke-width:0.26458332"
       inkscape:connector-curvature="0"
       id="Path-2"
       d="m 51.532429,40.226689 c 0.447569,-0.86754 2.005277,-3.4394 4.287863,-5.86471 0.575496,-0.61146 2.519416,-2.25889 2.409323,-1.45078 -0.259742,1.90595 -9.515475,8.44693 3.874399,0.2876 0.909082,-0.55396 0.286835,1.46396 -5.091879,4.62601 -0.714825,0.42024 -1.507385,0.63377 -2.157916,1.11606 -0.663098,0.4916 -3.366479,2.06057 -2.606807,1.74568 24.994102,-10.36032 8.398272,-2.21285 2.13823,0.20446 -2.443056,0.94338 8.148188,-1.98387 10.741263,-2.08536 0.903499,-0.0354 -3.610028,1.59944 -4.473892,1.8665 -1.322652,0.40889 -7.2703,1.70811 -8.830945,2.72073 1.594062,-0.0557 9.831229,-2.04539 11.758162,-2.14608 1.615626,-0.0844 6.267768,-0.54113 4.777449,-0.16684 -2.931927,0.73636 -10.644743,2.89775 -13.492162,3.22139 -0.608409,0.0692 7.086044,0.53137 10.781347,1.24206 -3.092635,0.54795 -10.740151,0.24607 -11.878204,0.41479 -0.642408,0.0952 9.199007,1.60487 10.316052,2.34821 0.21246,0.14137 -6.221281,0.80277 -8.742469,-0.52493 -1.129506,-0.59481 -3.023261,-0.17273 -3.679878,-1.29515 -0.92538,-1.58178 -0.193119,-3.66007 -0.289665,-5.49011 z" />
    <path
       style="fill:none;fill-rule:evenodd;stroke:none;stroke-width:0.26458332"
       inkscape:connector-curvature="0"
       id="path54"
       d="m 47.44029,40.170699 c -0.447545,-0.86754 -2.005266,-3.4394 -4.287853,-5.8647 -0.575477,-0.61146 -2.519429,-2.2589 -2.409309,-1.45079 0.259723,1.90595 9.515464,8.44693 -3.874426,0.28761 -0.909087,-0.55397 -0.286814,1.46395 5.091903,4.62601 0.714825,0.42023 1.507374,0.63376 2.1579,1.11605 0.663085,0.4916 3.366479,2.06058 2.606812,1.74568 -24.994094,-10.36031 -8.398279,-2.21285 -2.138238,0.20446 2.443054,0.94338 -8.148185,-1.98386 -10.741263,-2.08536 -0.903488,-0.0354 3.610036,1.59945 4.473879,1.8665 1.322652,0.40889 7.27033,1.70811 8.830977,2.72073 -1.594064,-0.0557 -9.831258,-2.04538 -11.75816,-2.14608 -1.615625,-0.0844 -6.267778,-0.54113 -4.777454,-0.16683 2.931903,0.73634 10.644745,2.89774 13.492141,3.22139 0.608417,0.0691 -7.086042,0.53137 -10.781329,1.24205 3.092614,0.54795 10.740155,0.24608 11.878183,0.41479 0.642406,0.0952 -9.198988,1.60488 -10.316051,2.34821 -0.212447,0.14137 6.221288,0.80277 8.742487,-0.52492 1.129511,-0.59482 3.023245,-0.17274 3.679885,-1.29516 0.925381,-1.58178 0.193099,-3.66007 0.289648,-5.49011 z" />
    <path
       style="fill:none;fill-rule:evenodd;stroke:none;stroke-width:0.26458332"
       inkscape:connector-curvature="0"
       id="path56"
       d="m 51.446756,51.818499 c 0.671328,0.65482 2.928488,6.12741 4.515538,8.90565 0.400103,0.70046 1.367605,2.94911 0.656114,2.62096 -1.678067,-0.77393 -5.08762,-11.11452 -1.352471,3.47871 0.253604,0.99079 -1.425522,-0.14769 -2.81977,-5.97734 -0.185288,-0.77476 -0.158856,-1.56286 -0.419232,-2.29597 -0.265377,-0.74727 -0.9475,-3.67159 -0.871564,-2.88524 2.497852,25.87241 -0.32594,8.33716 -0.788432,1.90699 -0.180499,-2.50942 -0.466064,8.04309 -1.101143,10.45389 -0.221297,0.83997 -0.455454,-3.76584 -0.458152,-4.63447 -0.0042,-1.32999 0.47281,-7.15912 -0.01905,-8.87733 -0.396592,1.48012 -0.882264,9.6066 -1.330979,11.40516 -0.376227,1.50801 -1.263346,5.91028 -1.188614,4.43597 0.147018,-2.9004 0.327689,-10.59339 0.830125,-13.30024 0.107357,-0.57837 -2.478498,6.3608 -4.169339,9.5561 0.365239,-2.99514 2.790606,-9.93624 2.955253,-11.02915 0.09294,-0.61694 -4.058219,8.00045 -5.054891,8.81792 -0.18955,0.15547 1.009917,-5.94107 2.937838,-7.8844 0.863719,-0.87061 1.36534,-1.82113 2.223471,-3.01696 1.466157,-2.04314 3.084896,-2.46846 4.793285,-2.04316 z" />
    <path
       style="opacity:1;vector-effect:none;fill:#5218d8;fill-opacity:1;fill-rule:evenodd;stroke:#6c11a2;stroke-width:0.52916664;stroke-linecap:butt;stroke-linejoin:miter;stroke-miterlimit:4;stroke-dasharray:none;stroke-dashoffset:0;stroke-opacity:1"
       inkscape:connector-curvature="0"
       id="Combined-Shape-Copy"
       d="m 51.508166,48.550709 -0.16211,-0.0768 0.74377,-11.79501 0.0082,-0.051 0.06914,-0.26134 c 0.06038,-0.2282 0.08919,-0.4633 0.0857,-0.69899 -0.0217,-1.45342 -1.242403,-2.6165 -2.728991,-2.59519 -0.231405,0.003 -0.46146,0.0354 -0.68461,0.0953 -1.458671,0.39194 -2.315498,1.86668 -1.917157,3.29349 l 0.03188,0.1142 0.0092,0.0546 0.760664,12.10465 -9.614265,7.61793 -0.04346,0.028 -0.24048,0.12349 c -0.209989,0.10782 -0.403984,0.24372 -0.576791,0.40404 -1.065605,0.98861 -1.113121,2.67405 -0.10255,3.76454 0.15731,0.16975 0.335036,0.31927 0.528934,0.44499 1.267303,0.82174 2.936575,0.47169 3.730363,-0.77906 l 0.06353,-0.1001 0.03437,-0.0434 8.235071,-8.40815 7.39701,9.00787 0.02873,0.043 0.127662,0.23829 c 0.111469,0.20808 0.250719,0.39967 0.414046,0.56965 1.007057,1.04819 2.693062,1.06629 3.765762,0.0368 0.166978,-0.16025 0.313372,-0.34056 0.435689,-0.53662 0.799492,-1.28146 0.42037,-2.94437 -0.844047,-3.7162 l -0.101203,-0.0618 -0.04395,-0.0336 -8.963899,-8.478 c -0.133217,-0.12599 -0.283448,-0.22849 -0.446325,-0.30561 z" />
  </g>
</svg>
