<svg id="Layer_1" enable-background="new 0 0 512 512" height="512" viewBox="0 0 512 512" width="512" xmlns="http://www.w3.org/2000/svg"><g><path d="m446 197.132c0-59.752-57.127-102.302-113.732-86.179-18.179-37.449-56.177-62.953-100.268-62.953-59.664 0-108.517 47.181-111.213 106.191-69.138 15.75-102.983 95.7-65.109 156.31-1.567 5.633-2.499 11.526-2.691 17.605-30.348 7.212-52.987 34.522-52.987 67.016 0 37.979 30.931 68.878 68.95 68.878h229.45c54.532 0 96.146-50.227 84.712-104.42h46.888c45.215 0 82-36.785 82-82 0-40.156-28.716-73.109-66-80.448zm-147.6 234.868h-229.45c-20.374 0-36.95-16.544-36.95-36.879 0-19.254 15.067-36.878 38.129-36.878 10.097 0 17.696-9.263 15.68-19.186-7.173-35.313 29.883-62.817 61.491-46.618 8.883 4.551 19.715-.061 22.607-9.594 7.655-25.226 31.461-42.845 57.893-42.845 35.221 0 63.402 30.186 60.239 65.791-.789 8.869 5.82 16.677 14.692 17.37 28.188 2.198 50.269 26.065 50.269 54.334 0 30.054-24.493 54.505-54.6 54.505zm131.6-104.42h-60.877c-11.981-16.902-29.368-28.801-49.078-33.862-3.432-47.839-43.494-85.718-92.245-85.718-36.009 0-66.728 20.367-82.121 49.916-25.144-6.186-51.681.962-70.362 19.334-14.041-44.574 17.717-89.906 62.978-93.439 8.878-.694 15.479-8.506 14.692-17.37-4.13-46.28 32.351-86.441 79.013-86.441 34.662 0 65.889 23.148 75.938 56.292 2.894 9.545 13.744 14.153 22.626 9.588 42.285-21.737 91.869 15.177 82.284 62.524-2.004 9.892 5.562 19.176 15.682 19.176 14.998 0 27.159 4.985 36.821 14.639 31.216 31.24 9.335 85.361-35.351 85.361z"/></g></svg>