/* XPM */

static const char *
front_data[] = {
  /* width height num_colors chars_per_pixel x_hot y_hot */
  "16 16 4 1 0 0",

  /* colors */
  ". s symbol1 c #000000 m black",
  "# s symbol2 c #0000ff m black",
  "a s symbol3 c #ffffff m white",
  "  s mask c none",

  /* pixels */
  "     #          ",
  "    #######     ",
  "     #          ",
  "                ",
  " #  .......  #  ",
  " #  .aaaaa. ### ",
  " #  .aaaaa.  #  ",
  " #  .aaaaa.  #  ",
  " #  .aaaaa.  #  ",
  "### .aaaaa.  #  ",
  " #  .......  #  ",
  "                ",
  "         #      ",
  "    #######     ",
  "         #      ",
  "                ",
};
