<?xml version="1.0" encoding="UTF-8" standalone="no"?>
<!-- Created with Inkscape (http://www.inkscape.org/) -->

<svg
   xmlns:dc="http://purl.org/dc/elements/1.1/"
   xmlns:cc="http://creativecommons.org/ns#"
   xmlns:rdf="http://www.w3.org/1999/02/22-rdf-syntax-ns#"
   xmlns:svg="http://www.w3.org/2000/svg"
   xmlns="http://www.w3.org/2000/svg"
   xmlns:sodipodi="http://sodipodi.sourceforge.net/DTD/sodipodi-0.dtd"
   xmlns:inkscape="http://www.inkscape.org/namespaces/inkscape"
   width="450.52805"
   height="446.48743"
   id="svg2"
   version="1.1"
   inkscape:version="0.91 r13725"
   sodipodi:docname="edit_dark.svg">
  <defs
     id="defs4">
    <marker
       inkscape:stockid="Arrow1Mstart"
       orient="auto"
       refY="0.0"
       refX="0.0"
       id="marker4648"
       style="overflow:visible"
       inkscape:isstock="true">
      <path
         id="path4650"
         d="M 0.0,0.0 L 5.0,-5.0 L -12.5,0.0 L 5.0,5.0 L 0.0,0.0 z "
         style="fill-rule:evenodd;stroke:#eaeaea;stroke-width:1pt;stroke-opacity:1;fill:#eaeaea;fill-opacity:1"
         transform="scale(0.4) translate(10,0)" />
    </marker>
    <marker
       inkscape:stockid="Arrow2Lstart"
       orient="auto"
       refY="0.0"
       refX="0.0"
       id="Arrow2Lstart"
       style="overflow:visible"
       inkscape:isstock="true">
      <path
         id="path4178"
         style="fill-rule:evenodd;stroke-width:0.625;stroke-linejoin:round;stroke:#eaeaea;stroke-opacity:1;fill:#eaeaea;fill-opacity:1"
         d="M 8.7185878,4.0337352 L -2.2072895,0.016013256 L 8.7185884,-4.0017078 C 6.9730900,-1.6296469 6.9831476,1.6157441 8.7185878,4.0337352 z "
         transform="scale(1.1) translate(1,0)" />
    </marker>
    <marker
       inkscape:stockid="Arrow1Mstart"
       orient="auto"
       refY="0.0"
       refX="0.0"
       id="Arrow1Mstart"
       style="overflow:visible"
       inkscape:isstock="true">
      <path
         id="path4166"
         d="M 0.0,0.0 L 5.0,-5.0 L -12.5,0.0 L 5.0,5.0 L 0.0,0.0 z "
         style="fill-rule:evenodd;stroke:#eaeaea;stroke-width:1pt;stroke-opacity:1;fill:#eaeaea;fill-opacity:1"
         transform="scale(0.4) translate(10,0)" />
    </marker>
    <marker
       inkscape:stockid="Arrow1Lstart"
       orient="auto"
       refY="0.0"
       refX="0.0"
       id="marker4508"
       style="overflow:visible"
       inkscape:isstock="true">
      <path
         id="path4510"
         d="M 0.0,0.0 L 5.0,-5.0 L -12.5,0.0 L 5.0,5.0 L 0.0,0.0 z "
         style="fill-rule:evenodd;stroke:#eaeaea;stroke-width:1pt;stroke-opacity:1;fill:#eaeaea;fill-opacity:1"
         transform="scale(0.8) translate(12.5,0)" />
    </marker>
    <marker
       inkscape:stockid="Arrow1Lstart"
       orient="auto"
       refY="0.0"
       refX="0.0"
       id="marker4474"
       style="overflow:visible"
       inkscape:isstock="true">
      <path
         id="path4476"
         d="M 0.0,0.0 L 5.0,-5.0 L -12.5,0.0 L 5.0,5.0 L 0.0,0.0 z "
         style="fill-rule:evenodd;stroke:#eaeaea;stroke-width:1pt;stroke-opacity:1;fill:#eaeaea;fill-opacity:1"
         transform="scale(0.8) translate(12.5,0)" />
    </marker>
    <marker
       inkscape:stockid="Arrow1Lstart"
       orient="auto"
       refY="0.0"
       refX="0.0"
       id="Arrow1Lstart"
       style="overflow:visible"
       inkscape:isstock="true">
      <path
         id="path4160"
         d="M 0.0,0.0 L 5.0,-5.0 L -12.5,0.0 L 5.0,5.0 L 0.0,0.0 z "
         style="fill-rule:evenodd;stroke:#eaeaea;stroke-width:1pt;stroke-opacity:1;fill:#eaeaea;fill-opacity:1"
         transform="scale(0.8) translate(12.5,0)" />
    </marker>
    <marker
       inkscape:stockid="Arrow1Lend"
       orient="auto"
       refY="0.0"
       refX="0.0"
       id="Arrow1Lend"
       style="overflow:visible;"
       inkscape:isstock="true">
      <path
         id="path4163"
         d="M 0.0,0.0 L 5.0,-5.0 L -12.5,0.0 L 5.0,5.0 L 0.0,0.0 z "
         style="fill-rule:evenodd;stroke:#eaeaea;stroke-width:1pt;stroke-opacity:1;fill:#eaeaea;fill-opacity:1"
         transform="scale(0.8) rotate(180) translate(12.5,0)" />
    </marker>
  </defs>
  <sodipodi:namedview
     id="base"
     pagecolor="#373737"
     bordercolor="#666666"
     borderopacity="1.0"
     inkscape:pageopacity="0.0"
     inkscape:pageshadow="2"
     inkscape:zoom="0.9899495"
     inkscape:cx="-125.24063"
     inkscape:cy="132.65953"
     inkscape:document-units="px"
     inkscape:current-layer="layer1"
     showgrid="false"
     inkscape:window-width="1824"
     inkscape:window-height="1604"
     inkscape:window-x="1610"
     inkscape:window-y="229"
     inkscape:window-maximized="0"
     fit-margin-top="0"
     fit-margin-left="0"
     fit-margin-right="0"
     fit-margin-bottom="0" />
  <metadata
     id="metadata7">
    <rdf:RDF>
      <cc:Work
         rdf:about="">
        <dc:format>image/svg+xml</dc:format>
        <dc:type
           rdf:resource="http://purl.org/dc/dcmitype/StillImage" />
        <dc:title />
      </cc:Work>
    </rdf:RDF>
  </metadata>
  <g
     inkscape:label="Layer 1"
     inkscape:groupmode="layer"
     id="layer1"
     transform="translate(4.7866896,7.5336323)">
    <path
       id="path4149"
       d="m 221.09675,289.00446 53.00279,-54.72177 19.73095,-20.37092 0,0 0,0 78.1501,-80.68468 c 0,0 4.2557,-21.56917 -23.59978,-50.328064 C 320.13845,54.14013 299.24685,58.53385 299.24685,58.53385 l -97.88106,100.65614 -111.808798,115.43503 -19.34408,95.06414 92.077828,-20.37089 58.80601,-60.31381 0,0 0,0 z m -64.22235,49.12979 -31.33743,6.7903 c -3.09504,-5.99144 -6.57698,-11.58345 -13.54084,-18.77317 -6.57699,-6.79029 -12.380214,-10.78458 -18.183431,-13.98001 l 6.963871,-32.35376 8.89827,-9.18688 c 0,0 17.02279,0.39943 36.36687,20.37089 19.34408,19.97146 19.73096,37.54634 19.73096,37.54634 l -8.89827,9.58629 z"
       inkscape:connector-curvature="0"
       style="fill:#ffffff;fill-opacity:1" />
    <rect
       style="fill:none;fill-opacity:1;stroke:#ffffff;stroke-width:16.17104912;stroke-miterlimit:4;stroke-dasharray:97.02629752, 16.17104958999999909;stroke-dashoffset:0;stroke-opacity:1"
       id="rect4206"
       width="383.82895"
       height="383.82895"
       x="29.298836"
       y="21.039322" />
  </g>
</svg>
