<!-- Generator: Adobe Illustrator 9.0, SVG Export Plug-In  
--><svg width="48pt" height="48pt" viewBox="0 0 48 48" xml:space="preserve"><g id="Layer_x0020_3" style="fill-rule:nonzero;clip-rule:nonzero;fill:#FFFFFF;stroke:#000000;stroke-miterlimit:4;"><g style="stroke:none;"><path style="fill:none;stroke:#FFFFFF;stroke-width:6.9612;" d="M37.9,38.8L30.1,31c-0.7-0.7-1.8-0.9-2.7-0.6c1.8-2.2,2.9-5,2.9-8c0-6.9-5.6-12.5-12.5-12.5S5.2,15.4,5.2,22.3c0,6.9,5.6,12.5,12.5,12.5c3,0,5.8-1.1,8-2.9c-0.3,0.9-0.1,2,0.6,2.7l7.8,7.8c1,1,2.7,1,3.7,0s1-2.7,0-3.7z M17.8,31.5     c-5.1,0-9.2-4.1-9.2-9.2c0-5.1,4.1-9.2,9.2-9.2c5.1,0,9.2,4.1,9.2,9.2c0,5.1-4.1,9.2-9.2,9.2z"/><path style="fill:none;stroke:#FFFFFF;stroke-width:13.245;stroke-linejoin:round;" d="M38.3,17.1v20.6H13V8.5h16.9l8.3,8.5z"/><path style="fill:none;stroke:#000000;stroke-width:6.6225;stroke-linejoin:round;" d="M38.3,17.1v20.6H13V8.5h16.9l8.3,8.5z"/><path d="M38.3,17.1v20.6H13V8.5h16.9l8.3,8.5z"/><g><path style="fill:#000000;" d="M38,38.9l-7.8-7.8c-0.7-0.7-1.8-0.9-2.7-0.6c1.8-2.2,2.9-5,2.9-8c0-6.9-5.6-12.5-12.5-12.5c-6.9,0-12.5,5.6-12.5,12.5c0,6.9,5.6,12.5,12.5,12.5c3,0,5.8-1.1,8-2.9c-0.3,0.9-0.1,2,0.6,2.7l7.8,7.8c1,1,2.7,1,3.7,0c1-1,1-2.7,0-3.7z       M17.9,31.6c-5.1,0-9.2-4.1-9.2-9.2c0-5.1,4.1-9.2,9.2-9.2c5.1,0,9.2,4.1,9.2,9.2c0,5.1-4.1,9.2-9.2,9.2z"/><path d="M27.1,22.4c0,5.1-4.1,9.2-9.2,9.2c-5.1,0-9.2-4.1-9.2-9.2c0-5.1,4.1-9.2,9.2-9.2c5.1,0,9.2,4.1,9.2,9.2z"/></g></g></g><g id="crop_x0020_marks" style="fill-rule:nonzero;clip-rule:nonzero;stroke:#000000;stroke-miterlimit:4;"><path style="fill:none;stroke:none;" d="M48,48H0V0h48v48z"/></g></svg>
