<?xml version="1.0" encoding="UTF-8" standalone="no"?>
<!-- Generator: Adobe Illustrator 9.0, SVG Export Plug-In  
-->

<svg
   xmlns:dc="http://purl.org/dc/elements/1.1/"
   xmlns:cc="http://creativecommons.org/ns#"
   xmlns:rdf="http://www.w3.org/1999/02/22-rdf-syntax-ns#"
   xmlns:svg="http://www.w3.org/2000/svg"
   xmlns="http://www.w3.org/2000/svg"
   xmlns:sodipodi="http://sodipodi.sourceforge.net/DTD/sodipodi-0.dtd"
   xmlns:inkscape="http://www.inkscape.org/namespaces/inkscape"
   width="48pt"
   height="48pt"
   viewBox="0 0 48 48"
   xml:space="preserve"
   id="svg2"
   version="1.1"
   inkscape:version="0.91 r13725"
   sodipodi:docname="search.svg"><metadata
     id="metadata28"><rdf:RDF><cc:Work
         rdf:about=""><dc:format>image/svg+xml</dc:format><dc:type
           rdf:resource="http://purl.org/dc/dcmitype/StillImage" /></cc:Work></rdf:RDF></metadata><defs
     id="defs26" /><sodipodi:namedview
     pagecolor="#ffffff"
     bordercolor="#666666"
     borderopacity="1"
     objecttolerance="10"
     gridtolerance="10"
     guidetolerance="10"
     inkscape:pageopacity="0"
     inkscape:pageshadow="2"
     inkscape:window-width="1712"
     inkscape:window-height="1259"
     id="namedview24"
     showgrid="false"
     inkscape:zoom="3.9333333"
     inkscape:cx="-4.4491525"
     inkscape:cy="30"
     inkscape:window-x="4697"
     inkscape:window-y="373"
     inkscape:window-maximized="0"
     inkscape:current-layer="svg2" /><g
     id="Layer_x0020_3"
     style="clip-rule:nonzero;fill:#ffffff;fill-rule:nonzero;stroke:#000000;stroke-miterlimit:4"
     transform="translate(0.40677966,0.20338983)"><g
       style="stroke:none"
       id="g5"><path
         style="fill:none;stroke:#ffffff;stroke-width:6.96120024"
         d="M 37.9,38.8 30.1,31 c -0.7,-0.7 -1.8,-0.9 -2.7,-0.6 1.8,-2.2 2.9,-5 2.9,-8 0,-6.9 -5.6,-12.5 -12.5,-12.5 -6.9,0 -12.6,5.5 -12.6,12.4 0,6.9 5.6,12.5 12.5,12.5 3,0 5.8,-1.1 8,-2.9 -0.3,0.9 -0.1,2 0.6,2.7 l 7.8,7.8 c 1,1 2.7,1 3.7,0 1,-1 1,-2.7 0,-3.7 z M 17.8,31.5 c -5.1,0 -9.2,-4.1 -9.2,-9.2 0,-5.1 4.1,-9.2 9.2,-9.2 5.1,0 9.2,4.1 9.2,9.2 0,5.1 -4.1,9.2 -9.2,9.2 z"
         id="path7"
         inkscape:connector-curvature="0" /><path
         style="fill:none;stroke:#ffffff;stroke-width:13.24499989;stroke-linejoin:round"
         d="m 38.3,17.1 0,20.6 -25.3,0 0,-29.2 16.9,0 8.3,8.5 z"
         id="path9"
         inkscape:connector-curvature="0" /><path
         style="fill:none;stroke:#000000;stroke-width:6.62249994;stroke-linejoin:round"
         d="m 38.3,17.1 0,20.6 -25.3,0 0,-29.2 16.9,0 8.3,8.5 z"
         id="path11"
         inkscape:connector-curvature="0" /><path
         d="m 38.3,17.1 0,20.6 -25.3,0 0,-29.2 16.9,0 8.3,8.5 z"
         id="path13"
         inkscape:connector-curvature="0" /><g
         id="g15"><path
           style="fill:#000000"
           d="m 38,38.9 -7.8,-7.8 c -0.7,-0.7 -1.8,-0.9 -2.7,-0.6 1.8,-2.2 2.9,-5 2.9,-8 C 30.4,15.6 24.8,10 17.9,10 11,10 5.4,15.6 5.4,22.5 5.4,29.4 11,35 17.9,35 c 3,0 5.8,-1.1 8,-2.9 -0.3,0.9 -0.1,2 0.6,2.7 l 7.8,7.8 c 1,1 2.7,1 3.7,0 1,-1 1,-2.7 0,-3.7 z M 17.9,31.6 c -5.1,0 -9.2,-4.1 -9.2,-9.2 0,-5.1 4.1,-9.2 9.2,-9.2 5.1,0 9.2,4.1 9.2,9.2 0,5.1 -4.1,9.2 -9.2,9.2 z"
           id="path17"
           inkscape:connector-curvature="0" /><path
           d="m 27.1,22.4 c 0,5.1 -4.1,9.2 -9.2,9.2 -5.1,0 -9.2,-4.1 -9.2,-9.2 0,-5.1 4.1,-9.2 9.2,-9.2 5.1,0 9.2,4.1 9.2,9.2 z"
           id="path19"
           inkscape:connector-curvature="0" /></g></g></g><g
     id="crop_x0020_marks"
     style="fill-rule:nonzero;clip-rule:nonzero;stroke:#000000;stroke-miterlimit:4;"><path
       style="fill:none;stroke:none;"
       d="M48,48H0V0h48v48z"
       id="path22" /></g></svg>